<?xml version="1.0" encoding="utf-8"?>
<!-- Generator: Adobe Illustrator 23.0.1, SVG Export Plug-In . SVG Version: 6.00 Build 0)  -->
<svg version="1.1" id="Layer_1" xmlns="http://www.w3.org/2000/svg" xmlns:xlink="http://www.w3.org/1999/xlink" x="0px" y="0px"
	 viewBox="0 0 1080 1080" style="enable-background:new 0 0 1080 1080;" xml:space="preserve">
<style type="text/css">
	.st0{fill:#680159;}
	.st1{fill:url(#SVGID_1_);}
	.st2{fill:url(#SVGID_2_);}
	.st3{fill:url(#SVGID_3_);}
	.st4{fill:url(#SVGID_4_);}
	.st5{fill:url(#SVGID_5_);}
	.st6{fill:url(#SVGID_6_);}
	.st7{fill:url(#SVGID_7_);}
	.st8{fill:url(#SVGID_8_);}
	.st9{fill:url(#SVGID_9_);}
	.st10{fill:url(#SVGID_10_);}
	.st11{fill:url(#SVGID_11_);}
	.st12{fill:url(#SVGID_12_);}
	.st13{fill:url(#SVGID_13_);}
	.st14{fill:url(#SVGID_14_);}
	.st15{fill:url(#SVGID_15_);}
	.st16{fill:url(#SVGID_16_);}
	.st17{fill:url(#SVGID_17_);}
	.st18{fill:url(#SVGID_18_);}
	.st19{fill:url(#SVGID_19_);}
	.st20{fill:url(#SVGID_20_);}
	.st21{fill:url(#SVGID_21_);}
	.st22{fill:url(#SVGID_22_);}
	.st23{fill:url(#SVGID_23_);}
	.st24{fill:url(#SVGID_24_);}
	.st25{fill:url(#SVGID_25_);}
	.st26{fill:url(#SVGID_26_);}
	.st27{fill:url(#SVGID_27_);}
	.st28{fill:url(#SVGID_28_);}
	.st29{fill:url(#SVGID_29_);}
	.st30{fill:url(#SVGID_30_);}
	.st31{fill:url(#SVGID_31_);}
	.st32{fill:url(#SVGID_32_);}
	.st33{fill:url(#SVGID_33_);}
	.st34{fill:url(#SVGID_34_);}
	.st35{fill:url(#SVGID_35_);}
	.st36{fill:url(#SVGID_36_);}
	.st37{fill:url(#SVGID_37_);}
	.st38{fill:#FFFFFF;}
	.st39{fill:#CDE31D;}
	.st40{fill:#F46703;}
	.st41{fill:#AF1112;}
	.st42{fill:#7F1620;}
	.st43{fill:#0B63AB;}
	.st44{fill:#43BB73;}
</style>
<rect class="st0" width="1080" height="1080"/>
<g>
	<linearGradient id="SVGID_1_" gradientUnits="userSpaceOnUse" x1="107" y1="540" x2="973" y2="540">
		<stop  offset="0" style="stop-color:#EDBC46"/>
		<stop  offset="0.1204" style="stop-color:#F8DA76"/>
		<stop  offset="0.2097" style="stop-color:#FFED95"/>
		<stop  offset="0.4462" style="stop-color:#A16327"/>
		<stop  offset="0.6667" style="stop-color:#EDA44C"/>
		<stop  offset="1" style="stop-color:#EDBC46"/>
	</linearGradient>
	<path class="st1" d="M107,107v866h866V107H107z M971.3,971.3H108.7V108.7H971.3V971.3z"/>
	<rect x="108.7" y="108.7" class="st0" width="862.61" height="862.61"/>
</g>
<linearGradient id="SVGID_2_" gradientUnits="userSpaceOnUse" x1="546.6448" y1="730.1088" x2="535.949" y2="286.235">
	<stop  offset="0" style="stop-color:#EDBC46"/>
	<stop  offset="0.1204" style="stop-color:#F8DA76"/>
	<stop  offset="0.2097" style="stop-color:#FFED95"/>
	<stop  offset="0.4462" style="stop-color:#A16327"/>
	<stop  offset="0.6667" style="stop-color:#EDA44C"/>
	<stop  offset="1" style="stop-color:#EDBC46"/>
</linearGradient>
<circle class="st2" cx="541.3" cy="508.17" r="222"/>
<circle class="st0" cx="541.3" cy="508.17" r="218.09"/>
<ellipse transform="matrix(0.7071 -0.7071 0.7071 0.7071 -203.4244 531.3492)" class="st0" cx="539.68" cy="511.23" rx="140.72" ry="140.72"/>
<g>
	<linearGradient id="SVGID_3_" gradientUnits="userSpaceOnUse" x1="387.6745" y1="511.2296" x2="691.6917" y2="511.2296">
		<stop  offset="0" style="stop-color:#EDBC46"/>
		<stop  offset="0.1204" style="stop-color:#F8DA76"/>
		<stop  offset="0.2097" style="stop-color:#FFED95"/>
		<stop  offset="0.4462" style="stop-color:#A16327"/>
		<stop  offset="0.6667" style="stop-color:#EDA44C"/>
		<stop  offset="1" style="stop-color:#EDBC46"/>
	</linearGradient>
	<path class="st3" d="M539.68,663.24c-83.82,0-152.01-68.19-152.01-152.01c0-83.82,68.19-152.01,152.01-152.01
		s152.01,68.19,152.01,152.01C691.69,595.05,623.5,663.24,539.68,663.24z M539.68,362.53c-81.99,0-148.7,66.71-148.7,148.7
		c0,81.99,66.7,148.7,148.7,148.7c81.99,0,148.7-66.71,148.7-148.7C688.38,429.24,621.67,362.53,539.68,362.53z"/>
</g>
<linearGradient id="SVGID_4_" gradientUnits="userSpaceOnUse" x1="358.9023" y1="555.6445" x2="342.5064" y2="-124.787">
	<stop  offset="0" style="stop-color:#EDBC46"/>
	<stop  offset="0.1204" style="stop-color:#F8DA76"/>
	<stop  offset="0.2097" style="stop-color:#FFED95"/>
	<stop  offset="0.4462" style="stop-color:#A16327"/>
	<stop  offset="0.6667" style="stop-color:#EDA44C"/>
	<stop  offset="1" style="stop-color:#EDBC46"/>
</linearGradient>
<path class="st4" d="M367.13,489.01c-1.4-0.13-2.51,0.23-3.33,1.07c-0.83,0.84-1.77,2.43-2.83,4.75c-2.02,4.71-4.03,8.15-6.03,10.34
	c-1.99,2.19-4.67,3.13-8.01,2.82c-3.28-0.3-5.8-1.91-7.57-4.84c-1.77-2.92-2.46-6.5-2.07-10.72c0.41-4.46,1.78-7.95,4.12-10.48
	c2.33-2.53,5.39-3.57,9.18-3.13l0.16,0.07l-0.81,8.8c-1.84-0.17-3.23,0.21-4.15,1.13c-0.92,0.93-1.48,2.4-1.67,4.42
	c-0.15,1.65,0.13,2.98,0.85,4c0.72,1.02,1.67,1.59,2.85,1.7c1.15,0.1,2.11-0.3,2.89-1.21c0.78-0.91,1.81-2.65,3.09-5.23
	c1.76-4.4,3.71-7.68,5.86-9.83c2.15-2.15,4.9-3.07,8.27-2.76c3.44,0.32,6,1.91,7.7,4.77c1.7,2.86,2.34,6.51,1.93,10.95
	c-0.41,4.42-1.79,8.07-4.16,10.95c-2.37,2.88-5.78,4.07-10.25,3.57l-0.16-0.07l0.81-8.83c2.27,0.21,3.94-0.2,5-1.23
	c1.06-1.03,1.7-2.7,1.91-5.01c0.17-1.9-0.07-3.34-0.74-4.35C369.29,489.68,368.35,489.12,367.13,489.01z"/>
<linearGradient id="SVGID_5_" gradientUnits="userSpaceOnUse" x1="371.4408" y1="555.3424" x2="355.0449" y2="-125.0891">
	<stop  offset="0" style="stop-color:#EDBC46"/>
	<stop  offset="0.1204" style="stop-color:#F8DA76"/>
	<stop  offset="0.2097" style="stop-color:#FFED95"/>
	<stop  offset="0.4462" style="stop-color:#A16327"/>
	<stop  offset="0.6667" style="stop-color:#EDA44C"/>
	<stop  offset="1" style="stop-color:#EDBC46"/>
</linearGradient>
<path class="st5" d="M392.98,437.12l-3.26,8.48l-14.75-5.66l-5.21,13.56l14.75,5.66l-3.27,8.51L344.6,453.6l3.27-8.51l15.35,5.89
	l5.21-13.56l-15.35-5.89l3.26-8.48L392.98,437.12z"/>
<linearGradient id="SVGID_6_" gradientUnits="userSpaceOnUse" x1="398.9174" y1="554.6803" x2="382.5215" y2="-125.7512">
	<stop  offset="0" style="stop-color:#EDBC46"/>
	<stop  offset="0.1204" style="stop-color:#F8DA76"/>
	<stop  offset="0.2097" style="stop-color:#FFED95"/>
	<stop  offset="0.4462" style="stop-color:#A16327"/>
	<stop  offset="0.6667" style="stop-color:#EDA44C"/>
	<stop  offset="1" style="stop-color:#EDBC46"/>
</linearGradient>
<path class="st6" d="M408.94,390.99l0.1-0.13l-16.66-19.81l5.85-7.13l24.62,31.86l-5.44,6.63l-22.92-10.27l-0.1,0.13l14.58,20.44
	l-5.44,6.63l-36.07-17.93l5.87-7.15l22.7,12.5l0.12-0.11l-15.49-21.33l4.36-5.31L408.94,390.99z"/>
<linearGradient id="SVGID_7_" gradientUnits="userSpaceOnUse" x1="443.0595" y1="553.6166" x2="426.6636" y2="-126.8148">
	<stop  offset="0" style="stop-color:#EDBC46"/>
	<stop  offset="0.1204" style="stop-color:#F8DA76"/>
	<stop  offset="0.2097" style="stop-color:#FFED95"/>
	<stop  offset="0.4462" style="stop-color:#A16327"/>
	<stop  offset="0.6667" style="stop-color:#EDA44C"/>
	<stop  offset="1" style="stop-color:#EDBC46"/>
</linearGradient>
<path class="st7" d="M448.33,355.37l-11.49,7.69l5.44,8.13l13.78-9.22l3.9,5.82l-21.35,14.29l-21.83-32.62l21.37-14.3l3.9,5.82
	l-13.8,9.23l4.69,7.01l11.49-7.69L448.33,355.37z"/>
<linearGradient id="SVGID_8_" gradientUnits="userSpaceOnUse" x1="516.9892" y1="551.7726" x2="500.3647" y2="-128.4612">
	<stop  offset="0" style="stop-color:#EDBC46"/>
	<stop  offset="0.1204" style="stop-color:#F8DA76"/>
	<stop  offset="0.2097" style="stop-color:#FFED95"/>
	<stop  offset="0.4462" style="stop-color:#A16327"/>
	<stop  offset="0.6667" style="stop-color:#EDA44C"/>
	<stop  offset="1" style="stop-color:#EDBC46"/>
</linearGradient>
<polygon class="st8" points="512.6,338.08 512.76,338.06 517.34,309.56 529.25,307.72 535.23,346.52 526.22,347.9 522.37,322.91 
	522.21,322.91 517.51,349.24 511.46,350.17 499.27,326.82 499.12,326.87 502.91,351.49 493.9,352.88 487.93,314.09 499.73,312.27 
	"/>
<linearGradient id="SVGID_9_" gradientUnits="userSpaceOnUse" x1="569.7376" y1="550.5641" x2="553.3417" y2="-129.8673">
	<stop  offset="0" style="stop-color:#EDBC46"/>
	<stop  offset="0.1204" style="stop-color:#F8DA76"/>
	<stop  offset="0.2097" style="stop-color:#FFED95"/>
	<stop  offset="0.4462" style="stop-color:#A16327"/>
	<stop  offset="0.6667" style="stop-color:#EDA44C"/>
	<stop  offset="1" style="stop-color:#EDBC46"/>
</linearGradient>
<path class="st9" d="M571.81,343.07l-11.54-1.77l-3.4,7.2l-9.49-1.46l18.62-36.85l4.82,0.74l0,0.03l0.03-0.02l4.82,0.74l6.72,40.74
	l-9.49-1.46L571.81,343.07z M563.42,334.69l7.38,1.13l-1.77-12.6l-0.16-0.02L563.42,334.69z"/>
<linearGradient id="SVGID_10_" gradientUnits="userSpaceOnUse" x1="629.0372" y1="549.1353" x2="612.6412" y2="-131.2962">
	<stop  offset="0" style="stop-color:#EDBC46"/>
	<stop  offset="0.1204" style="stop-color:#F8DA76"/>
	<stop  offset="0.2097" style="stop-color:#FFED95"/>
	<stop  offset="0.4462" style="stop-color:#A16327"/>
	<stop  offset="0.6667" style="stop-color:#EDA44C"/>
	<stop  offset="1" style="stop-color:#EDBC46"/>
</linearGradient>
<path class="st10" d="M626.69,356.37l0.15,0.07l15.43-20.79l8.28,4.04l-25.31,31.32l-7.7-3.76l4.7-24.67l-0.15-0.07l-16.52,18.9
	l-7.7-3.76l9.1-39.23l8.31,4.06l-6.91,24.97l0.13,0.1l17.17-20l6.18,3.02L626.69,356.37z"/>
<linearGradient id="SVGID_11_" gradientUnits="userSpaceOnUse" x1="688.138" y1="547.7111" x2="671.7421" y2="-132.7204">
	<stop  offset="0" style="stop-color:#EDBC46"/>
	<stop  offset="0.1204" style="stop-color:#F8DA76"/>
	<stop  offset="0.2097" style="stop-color:#FFED95"/>
	<stop  offset="0.4462" style="stop-color:#A16327"/>
	<stop  offset="0.6667" style="stop-color:#EDA44C"/>
	<stop  offset="1" style="stop-color:#EDBC46"/>
</linearGradient>
<path class="st11" d="M679.03,398.42l-1.57-1.99l-12.38,9.72l-5.63-7.17l30.88-24.23l5.62,7.17l-12.09,9.49l1.16,1.48l17.56-2.51
	l7.07,9.01l-21.66,1.3l-8.57,23.75l-7.22-9.2L679.03,398.42z"/>
<linearGradient id="SVGID_12_" gradientUnits="userSpaceOnUse" x1="713.5931" y1="547.0978" x2="697.1972" y2="-133.3337">
	<stop  offset="0" style="stop-color:#EDBC46"/>
	<stop  offset="0.1204" style="stop-color:#F8DA76"/>
	<stop  offset="0.2097" style="stop-color:#FFED95"/>
	<stop  offset="0.4462" style="stop-color:#A16327"/>
	<stop  offset="0.6667" style="stop-color:#EDA44C"/>
	<stop  offset="1" style="stop-color:#EDBC46"/>
</linearGradient>
<path class="st12" d="M733.45,449.42l-23.56,9.62c-4.16,1.7-7.98,1.65-11.46-0.16c-3.48-1.8-6.13-4.92-7.94-9.37
	c-1.83-4.48-2.13-8.58-0.91-12.32c1.22-3.74,3.91-6.46,8.07-8.16l23.56-9.62l3.45,8.46l-23.56,9.61c-2.25,0.92-3.71,2.19-4.38,3.82
	c-0.67,1.63-0.59,3.48,0.25,5.55c0.84,2.05,2.05,3.41,3.66,4.08c1.6,0.68,3.54,0.55,5.8-0.37l23.56-9.62L733.45,449.42z"/>
<linearGradient id="SVGID_13_" gradientUnits="userSpaceOnUse" x1="723.1097" y1="546.8685" x2="706.7138" y2="-133.563">
	<stop  offset="0" style="stop-color:#EDBC46"/>
	<stop  offset="0.1204" style="stop-color:#F8DA76"/>
	<stop  offset="0.2097" style="stop-color:#FFED95"/>
	<stop  offset="0.4462" style="stop-color:#A16327"/>
	<stop  offset="0.6667" style="stop-color:#EDA44C"/>
	<stop  offset="1" style="stop-color:#EDBC46"/>
</linearGradient>
<path class="st13" d="M703.92,510.9l-0.91-9.04l23.13-16.78l-0.07-0.16l-24.51,2.47l-0.92-9.07l39.05-3.94l0.92,9.07l-23.1,16.77
	l0.07,0.16l24.49-2.47l0.91,9.04L703.92,510.9z"/>
<g>
	<g>
		<linearGradient id="SVGID_14_" gradientUnits="userSpaceOnUse" x1="337.0266" y1="531.5206" x2="359.5824" y2="531.5206">
			<stop  offset="0" style="stop-color:#EDBC46"/>
			<stop  offset="0.1204" style="stop-color:#F8DA76"/>
			<stop  offset="0.2097" style="stop-color:#FFED95"/>
			<stop  offset="0.4462" style="stop-color:#A16327"/>
			<stop  offset="0.6667" style="stop-color:#EDA44C"/>
			<stop  offset="1" style="stop-color:#EDBC46"/>
		</linearGradient>
		<path class="st14" d="M337.03,519.84c0,0,0,17.72,22.56,23.36C359.58,543.2,354.75,527.9,337.03,519.84z"/>
		<linearGradient id="SVGID_15_" gradientUnits="userSpaceOnUse" x1="341.1178" y1="560.5209" x2="366.7691" y2="560.5209">
			<stop  offset="0" style="stop-color:#EDBC46"/>
			<stop  offset="0.1204" style="stop-color:#F8DA76"/>
			<stop  offset="0.2097" style="stop-color:#FFED95"/>
			<stop  offset="0.4462" style="stop-color:#A16327"/>
			<stop  offset="0.6667" style="stop-color:#EDA44C"/>
			<stop  offset="1" style="stop-color:#EDBC46"/>
		</linearGradient>
		<path class="st15" d="M341.12,550.56c0,0,2.52,17.54,25.65,19.91C366.77,570.48,359.81,556.02,341.12,550.56z"/>
		<linearGradient id="SVGID_16_" gradientUnits="userSpaceOnUse" x1="352.229" y1="588.3134" x2="379.019" y2="588.3134">
			<stop  offset="0" style="stop-color:#EDBC46"/>
			<stop  offset="0.1204" style="stop-color:#F8DA76"/>
			<stop  offset="0.2097" style="stop-color:#FFED95"/>
			<stop  offset="0.4462" style="stop-color:#A16327"/>
			<stop  offset="0.6667" style="stop-color:#EDA44C"/>
			<stop  offset="1" style="stop-color:#EDBC46"/>
		</linearGradient>
		<path class="st16" d="M352.23,579.14c0,0,3.56,17.36,26.79,18.35C379.02,597.49,371.21,583.47,352.23,579.14z"/>
		<linearGradient id="SVGID_17_" gradientUnits="userSpaceOnUse" x1="361.964" y1="611.5309" x2="391.8408" y2="611.5309">
			<stop  offset="0" style="stop-color:#EDBC46"/>
			<stop  offset="0.1204" style="stop-color:#F8DA76"/>
			<stop  offset="0.2097" style="stop-color:#FFED95"/>
			<stop  offset="0.4462" style="stop-color:#A16327"/>
			<stop  offset="0.6667" style="stop-color:#EDA44C"/>
			<stop  offset="1" style="stop-color:#EDBC46"/>
		</linearGradient>
		<path class="st17" d="M361.96,604.91c0,0,6.91,16.32,29.88,12.72C391.84,617.63,381.42,605.42,361.96,604.91z"/>
		<linearGradient id="SVGID_18_" gradientUnits="userSpaceOnUse" x1="379.1078" y1="636.8866" x2="410.5033" y2="636.8866">
			<stop  offset="0" style="stop-color:#EDBC46"/>
			<stop  offset="0.1204" style="stop-color:#F8DA76"/>
			<stop  offset="0.2097" style="stop-color:#FFED95"/>
			<stop  offset="0.4462" style="stop-color:#A16327"/>
			<stop  offset="0.6667" style="stop-color:#EDA44C"/>
			<stop  offset="1" style="stop-color:#EDBC46"/>
		</linearGradient>
		<path class="st18" d="M379.11,632.01c0,0,9.18,15.16,31.4,8.3C410.5,640.31,398.44,629.72,379.11,632.01z"/>
		<linearGradient id="SVGID_19_" gradientUnits="userSpaceOnUse" x1="401.4075" y1="658.5761" x2="433.4871" y2="658.5761">
			<stop  offset="0" style="stop-color:#EDBC46"/>
			<stop  offset="0.1204" style="stop-color:#F8DA76"/>
			<stop  offset="0.2097" style="stop-color:#FFED95"/>
			<stop  offset="0.4462" style="stop-color:#A16327"/>
			<stop  offset="0.6667" style="stop-color:#EDA44C"/>
			<stop  offset="1" style="stop-color:#EDBC46"/>
		</linearGradient>
		<path class="st19" d="M401.41,655.09c0,0,10.68,14.14,32.08,5.04C433.49,660.13,420.4,650.83,401.41,655.09z"/>
		<linearGradient id="SVGID_20_" gradientUnits="userSpaceOnUse" x1="426.2232" y1="675.3446" x2="458.6623" y2="675.3446">
			<stop  offset="0" style="stop-color:#EDBC46"/>
			<stop  offset="0.1204" style="stop-color:#F8DA76"/>
			<stop  offset="0.2097" style="stop-color:#FFED95"/>
			<stop  offset="0.4462" style="stop-color:#A16327"/>
			<stop  offset="0.6667" style="stop-color:#EDA44C"/>
			<stop  offset="1" style="stop-color:#EDBC46"/>
		</linearGradient>
		<path class="st20" d="M426.22,673.5c0,0,12.19,12.87,32.44,1.45C458.66,674.95,444.63,667.16,426.22,673.5z"/>
		<linearGradient id="SVGID_21_" gradientUnits="userSpaceOnUse" x1="453.8773" y1="689.3527" x2="485.7846" y2="689.3527">
			<stop  offset="0" style="stop-color:#EDBC46"/>
			<stop  offset="0.1204" style="stop-color:#F8DA76"/>
			<stop  offset="0.2097" style="stop-color:#FFED95"/>
			<stop  offset="0.4462" style="stop-color:#A16327"/>
			<stop  offset="0.6667" style="stop-color:#EDA44C"/>
			<stop  offset="1" style="stop-color:#EDBC46"/>
		</linearGradient>
		<path class="st21" d="M453.88,691.34c0,0,14.81,9.73,31.91-6.03C485.78,685.31,470.34,680.95,453.88,691.34z"/>
		<linearGradient id="SVGID_22_" gradientUnits="userSpaceOnUse" x1="356.4419" y1="604.4654" x2="522.9105" y2="604.4654">
			<stop  offset="0" style="stop-color:#EDBC46"/>
			<stop  offset="0.1204" style="stop-color:#F8DA76"/>
			<stop  offset="0.2097" style="stop-color:#FFED95"/>
			<stop  offset="0.4462" style="stop-color:#A16327"/>
			<stop  offset="0.6667" style="stop-color:#EDA44C"/>
			<stop  offset="1" style="stop-color:#EDBC46"/>
		</linearGradient>
		<path class="st22" d="M522.91,691.23c-90.81-7.64-162.66-82.93-164.83-175.17h-1.64c2.17,93.14,74.76,169.17,166.47,176.82V691.23
			z"/>
	</g>
	<g>
		<linearGradient id="SVGID_23_" gradientUnits="userSpaceOnUse" x1="719.3439" y1="531.5206" x2="741.8997" y2="531.5206">
			<stop  offset="0" style="stop-color:#EDBC46"/>
			<stop  offset="0.1204" style="stop-color:#F8DA76"/>
			<stop  offset="0.2097" style="stop-color:#FFED95"/>
			<stop  offset="0.4462" style="stop-color:#A16327"/>
			<stop  offset="0.6667" style="stop-color:#EDA44C"/>
			<stop  offset="1" style="stop-color:#EDBC46"/>
		</linearGradient>
		<path class="st23" d="M741.9,519.84c0,0,0,17.72-22.56,23.36C719.34,543.2,724.18,527.9,741.9,519.84z"/>
		<linearGradient id="SVGID_24_" gradientUnits="userSpaceOnUse" x1="712.1572" y1="560.5209" x2="737.8086" y2="560.5209">
			<stop  offset="0" style="stop-color:#EDBC46"/>
			<stop  offset="0.1204" style="stop-color:#F8DA76"/>
			<stop  offset="0.2097" style="stop-color:#FFED95"/>
			<stop  offset="0.4462" style="stop-color:#A16327"/>
			<stop  offset="0.6667" style="stop-color:#EDA44C"/>
			<stop  offset="1" style="stop-color:#EDBC46"/>
		</linearGradient>
		<path class="st24" d="M737.81,550.56c0,0-2.52,17.54-25.65,19.91C712.16,570.48,719.12,556.02,737.81,550.56z"/>
		<linearGradient id="SVGID_25_" gradientUnits="userSpaceOnUse" x1="699.9073" y1="588.3134" x2="726.6974" y2="588.3134">
			<stop  offset="0" style="stop-color:#EDBC46"/>
			<stop  offset="0.1204" style="stop-color:#F8DA76"/>
			<stop  offset="0.2097" style="stop-color:#FFED95"/>
			<stop  offset="0.4462" style="stop-color:#A16327"/>
			<stop  offset="0.6667" style="stop-color:#EDA44C"/>
			<stop  offset="1" style="stop-color:#EDBC46"/>
		</linearGradient>
		<path class="st25" d="M726.7,579.14c0,0-3.56,17.36-26.79,18.35C699.91,597.49,707.72,583.47,726.7,579.14z"/>
		<linearGradient id="SVGID_26_" gradientUnits="userSpaceOnUse" x1="687.0854" y1="611.5309" x2="716.9623" y2="611.5309">
			<stop  offset="0" style="stop-color:#EDBC46"/>
			<stop  offset="0.1204" style="stop-color:#F8DA76"/>
			<stop  offset="0.2097" style="stop-color:#FFED95"/>
			<stop  offset="0.4462" style="stop-color:#A16327"/>
			<stop  offset="0.6667" style="stop-color:#EDA44C"/>
			<stop  offset="1" style="stop-color:#EDBC46"/>
		</linearGradient>
		<path class="st26" d="M716.96,604.91c0,0-6.91,16.32-29.88,12.72C687.09,617.63,697.5,605.42,716.96,604.91z"/>
		<linearGradient id="SVGID_27_" gradientUnits="userSpaceOnUse" x1="668.4231" y1="636.8866" x2="699.8185" y2="636.8866">
			<stop  offset="0" style="stop-color:#EDBC46"/>
			<stop  offset="0.1204" style="stop-color:#F8DA76"/>
			<stop  offset="0.2097" style="stop-color:#FFED95"/>
			<stop  offset="0.4462" style="stop-color:#A16327"/>
			<stop  offset="0.6667" style="stop-color:#EDA44C"/>
			<stop  offset="1" style="stop-color:#EDBC46"/>
		</linearGradient>
		<path class="st27" d="M699.82,632.01c0,0-9.18,15.16-31.4,8.3C668.42,640.31,680.49,629.72,699.82,632.01z"/>
		<linearGradient id="SVGID_28_" gradientUnits="userSpaceOnUse" x1="645.4393" y1="658.5761" x2="677.5189" y2="658.5761">
			<stop  offset="0" style="stop-color:#EDBC46"/>
			<stop  offset="0.1204" style="stop-color:#F8DA76"/>
			<stop  offset="0.2097" style="stop-color:#FFED95"/>
			<stop  offset="0.4462" style="stop-color:#A16327"/>
			<stop  offset="0.6667" style="stop-color:#EDA44C"/>
			<stop  offset="1" style="stop-color:#EDBC46"/>
		</linearGradient>
		<path class="st28" d="M677.52,655.09c0,0-10.68,14.14-32.08,5.04C645.44,660.13,658.52,650.83,677.52,655.09z"/>
		<linearGradient id="SVGID_29_" gradientUnits="userSpaceOnUse" x1="620.264" y1="675.3446" x2="652.7031" y2="675.3446">
			<stop  offset="0" style="stop-color:#EDBC46"/>
			<stop  offset="0.1204" style="stop-color:#F8DA76"/>
			<stop  offset="0.2097" style="stop-color:#FFED95"/>
			<stop  offset="0.4462" style="stop-color:#A16327"/>
			<stop  offset="0.6667" style="stop-color:#EDA44C"/>
			<stop  offset="1" style="stop-color:#EDBC46"/>
		</linearGradient>
		<path class="st29" d="M652.7,673.5c0,0-12.19,12.87-32.44,1.45C620.26,674.95,634.3,667.16,652.7,673.5z"/>
		<linearGradient id="SVGID_30_" gradientUnits="userSpaceOnUse" x1="593.1417" y1="689.3527" x2="625.0491" y2="689.3527">
			<stop  offset="0" style="stop-color:#EDBC46"/>
			<stop  offset="0.1204" style="stop-color:#F8DA76"/>
			<stop  offset="0.2097" style="stop-color:#FFED95"/>
			<stop  offset="0.4462" style="stop-color:#A16327"/>
			<stop  offset="0.6667" style="stop-color:#EDA44C"/>
			<stop  offset="1" style="stop-color:#EDBC46"/>
		</linearGradient>
		<path class="st30" d="M625.05,691.34c0,0-14.81,9.73-31.91-6.03C593.14,685.31,608.59,680.95,625.05,691.34z"/>
		<linearGradient id="SVGID_31_" gradientUnits="userSpaceOnUse" x1="556.0158" y1="604.4654" x2="722.4844" y2="604.4654">
			<stop  offset="0" style="stop-color:#EDBC46"/>
			<stop  offset="0.1204" style="stop-color:#F8DA76"/>
			<stop  offset="0.2097" style="stop-color:#FFED95"/>
			<stop  offset="0.4462" style="stop-color:#A16327"/>
			<stop  offset="0.6667" style="stop-color:#EDA44C"/>
			<stop  offset="1" style="stop-color:#EDBC46"/>
		</linearGradient>
		<path class="st31" d="M556.02,691.23c90.81-7.64,162.66-82.93,164.83-175.17h1.64c-2.17,93.14-74.76,169.17-166.47,176.82V691.23z
			"/>
	</g>
</g>
<g>
	<linearGradient id="SVGID_32_" gradientUnits="userSpaceOnUse" x1="494.7168" y1="339.0094" x2="473.9864" y2="1096.3615">
		<stop  offset="0" style="stop-color:#EDBC46"/>
		<stop  offset="0.1204" style="stop-color:#F8DA76"/>
		<stop  offset="0.2097" style="stop-color:#FFED95"/>
		<stop  offset="0.4462" style="stop-color:#A16327"/>
		<stop  offset="0.6667" style="stop-color:#EDA44C"/>
		<stop  offset="1" style="stop-color:#EDBC46"/>
	</linearGradient>
	<path class="st32" d="M477.89,558.78c-8.42,0-13.21,1.88-13.56,2.02l-7.1,3.31v-93.13c-2.63,0.83-5.72,2.2-7.8,4.34v107.18
		c0,0,43.7-21.1,79.92-5.62c0.14,0.05,0.27,0.12,0.41,0.17c-0.13-0.08-0.26-0.17-0.39-0.25
		C506.9,562.17,489.34,558.78,477.89,558.78z"/>
	<linearGradient id="SVGID_33_" gradientUnits="userSpaceOnUse" x1="498.9905" y1="339.1263" x2="478.2601" y2="1096.4785">
		<stop  offset="0" style="stop-color:#EDBC46"/>
		<stop  offset="0.1204" style="stop-color:#F8DA76"/>
		<stop  offset="0.2097" style="stop-color:#FFED95"/>
		<stop  offset="0.4462" style="stop-color:#A16327"/>
		<stop  offset="0.6667" style="stop-color:#EDA44C"/>
		<stop  offset="1" style="stop-color:#EDBC46"/>
	</linearGradient>
	<path class="st33" d="M526.4,568.83c-7.78-11.64-20.78-25.78-38.76-27.51l-4.62-0.45V477v-31.58c-1.34-0.1-2.77-0.17-4.28-0.17
		c-4.76,0-10.35,0.61-16.4,2.44v22.1v86.18c0,0,5.49-2.45,15.56-2.45C488.94,553.54,505.5,556.48,526.4,568.83z"/>
	<linearGradient id="SVGID_34_" gradientUnits="userSpaceOnUse" x1="596.277" y1="341.7893" x2="575.5466" y2="1099.1414">
		<stop  offset="0" style="stop-color:#EDBC46"/>
		<stop  offset="0.1204" style="stop-color:#F8DA76"/>
		<stop  offset="0.2097" style="stop-color:#FFED95"/>
		<stop  offset="0.4462" style="stop-color:#A16327"/>
		<stop  offset="0.6667" style="stop-color:#EDA44C"/>
		<stop  offset="1" style="stop-color:#EDBC46"/>
	</linearGradient>
	<path class="st34" d="M622.14,470.99v85l0.08,8.16l-7.18-3.35c-0.35-0.14-5.14-2.02-13.56-2.02c-11.45,0-29.01,3.39-51.48,18.02
		c-0.14,0.08-0.28,0.17-0.41,0.26c0.14-0.06,0.29-0.13,0.43-0.18c36.21-15.47,79.92,5.62,79.92,5.62V475.32
		C627.85,473.19,624.77,471.82,622.14,470.99z"/>
	<linearGradient id="SVGID_35_" gradientUnits="userSpaceOnUse" x1="591.0481" y1="341.6462" x2="570.3176" y2="1098.9983">
		<stop  offset="0" style="stop-color:#EDBC46"/>
		<stop  offset="0.1204" style="stop-color:#F8DA76"/>
		<stop  offset="0.2097" style="stop-color:#FFED95"/>
		<stop  offset="0.4462" style="stop-color:#A16327"/>
		<stop  offset="0.6667" style="stop-color:#EDA44C"/>
		<stop  offset="1" style="stop-color:#EDBC46"/>
	</linearGradient>
	<path class="st35" d="M556.73,563.59c-1.37,1.77-2.63,3.53-3.76,5.25c20.89-12.35,37.46-15.3,48.51-15.3
		c10.07,0,15.56,2.45,15.56,2.45V469.8v-22.1c-6.06-1.84-11.64-2.44-16.4-2.44c-1.51,0-2.95,0.06-4.28,0.17V477v63.87l-4.62,0.45
		C578.98,542.55,567.21,550.04,556.73,563.59z"/>
	<linearGradient id="SVGID_36_" gradientUnits="userSpaceOnUse" x1="543.5137" y1="340.3451" x2="522.7833" y2="1097.6971">
		<stop  offset="0" style="stop-color:#EDBC46"/>
		<stop  offset="0.1204" style="stop-color:#F8DA76"/>
		<stop  offset="0.2097" style="stop-color:#FFED95"/>
		<stop  offset="0.4462" style="stop-color:#A16327"/>
		<stop  offset="0.6667" style="stop-color:#EDA44C"/>
		<stop  offset="1" style="stop-color:#EDBC46"/>
	</linearGradient>
	<path class="st36" d="M591.25,536.1v-57.32v-32.7v-2.66v-2.65V424.5c0,0-34.38,11.05-51.57,48.62
		c-17.19-37.57-51.57-48.62-51.57-48.62v16.27v2.65v2.66v32.7v57.32c20.8,2,35.32,18.58,43.53,31.35c0.67,1.04,1.3,2.07,1.89,3.05
		c0.67,1.12,1.28,2.2,1.85,3.21v0.01c0.26,0.47,0.5,0.92,0.74,1.36c0.76,1.42,1.4,2.69,1.91,3.76c0.21,0.43,0.4,0.83,0.57,1.2
		c0.21,0.46,0.4,0.87,0.55,1.21c0.33,0.76,0.51,1.2,0.54,1.27c0.01,0,0.01,0.01,0.01,0.01s0-0.01,0.01-0.01
		c0.03-0.07,0.2-0.51,0.54-1.27c0.15-0.34,0.34-0.74,0.55-1.21c0.17-0.36,0.36-0.77,0.57-1.2c0.51-1.07,1.15-2.34,1.91-3.76
		c0.23-0.44,0.48-0.89,0.74-1.36v-0.01c0.56-1.01,1.17-2.09,1.85-3.21c0.59-0.98,1.21-2,1.89-3.05
		C555.94,554.68,570.45,538.1,591.25,536.1z"/>
</g>
<linearGradient id="SVGID_37_" gradientUnits="userSpaceOnUse" x1="368.6675" y1="599.4631" x2="710.2588" y2="599.4631">
	<stop  offset="0" style="stop-color:#EDBC46"/>
	<stop  offset="0.1204" style="stop-color:#F8DA76"/>
	<stop  offset="0.2097" style="stop-color:#FFED95"/>
	<stop  offset="0.4462" style="stop-color:#A16327"/>
	<stop  offset="0.6667" style="stop-color:#EDA44C"/>
	<stop  offset="1" style="stop-color:#EDBC46"/>
</linearGradient>
<path class="st37" d="M708.72,516.06c-2.15,91.5-77.25,165.27-169.26,165.27s-167.11-73.77-169.26-165.27h-1.54
	c2.15,92.35,77.94,166.81,170.8,166.81s168.64-74.46,170.8-166.81H708.72z"/>
<path class="st38" d="M215.08,805.5c0,0.11-0.01,0.2-0.02,0.28c-0.02,0.08-0.04,0.15-0.08,0.2c-0.04,0.05-0.08,0.09-0.13,0.12
	c-0.05,0.03-0.1,0.04-0.16,0.04h-6.18v6.04h5.86c0.06,0,0.11,0.01,0.16,0.03c0.05,0.02,0.09,0.06,0.13,0.11
	c0.04,0.05,0.06,0.11,0.08,0.2c0.02,0.08,0.03,0.19,0.03,0.31c0,0.11-0.01,0.2-0.03,0.28c-0.02,0.08-0.04,0.15-0.08,0.2
	c-0.04,0.05-0.08,0.09-0.13,0.12c-0.05,0.03-0.1,0.04-0.16,0.04h-5.86v7.03c0,0.05-0.01,0.09-0.04,0.14
	c-0.02,0.04-0.07,0.07-0.12,0.1c-0.06,0.02-0.13,0.05-0.23,0.06c-0.09,0.02-0.22,0.02-0.36,0.02c-0.14,0-0.26-0.01-0.36-0.02
	c-0.1-0.02-0.18-0.04-0.23-0.06c-0.06-0.02-0.1-0.06-0.12-0.1c-0.02-0.04-0.04-0.09-0.04-0.14v-14.94c0-0.3,0.08-0.5,0.23-0.61
	c0.16-0.11,0.31-0.17,0.46-0.17h6.99c0.06,0,0.11,0.01,0.16,0.04c0.05,0.03,0.09,0.07,0.13,0.13c0.04,0.06,0.06,0.13,0.08,0.22
	C215.07,805.29,215.08,805.39,215.08,805.5z"/>
<path class="st38" d="M240.49,814.83c0,0.89-0.12,1.71-0.35,2.45c-0.23,0.75-0.57,1.4-1.03,1.95s-1.03,0.98-1.71,1.29
	c-0.68,0.31-1.48,0.46-2.38,0.46c-0.87,0-1.63-0.14-2.29-0.41c-0.65-0.28-1.2-0.67-1.64-1.18c-0.44-0.51-0.77-1.14-0.99-1.87
	c-0.22-0.73-0.33-1.56-0.33-2.48c0-0.89,0.11-1.71,0.34-2.45c0.23-0.75,0.57-1.4,1.02-1.94c0.46-0.55,1.03-0.97,1.71-1.28
	c0.68-0.3,1.48-0.46,2.39-0.46c0.87,0,1.63,0.14,2.29,0.41c0.65,0.27,1.2,0.66,1.63,1.18c0.44,0.51,0.76,1.14,0.99,1.87
	C240.38,813.1,240.49,813.92,240.49,814.83z M238.94,814.97c0-0.63-0.06-1.24-0.19-1.81c-0.12-0.58-0.33-1.08-0.62-1.52
	c-0.29-0.44-0.67-0.79-1.16-1.05c-0.49-0.26-1.09-0.39-1.81-0.39c-0.67,0-1.24,0.12-1.73,0.36c-0.49,0.24-0.88,0.57-1.19,0.99
	c-0.31,0.42-0.54,0.92-0.68,1.5c-0.15,0.58-0.22,1.2-0.22,1.86c0,0.64,0.06,1.25,0.19,1.83c0.12,0.58,0.33,1.09,0.62,1.52
	c0.29,0.44,0.67,0.78,1.16,1.04c0.49,0.26,1.09,0.38,1.81,0.38c0.67,0,1.24-0.12,1.73-0.36c0.49-0.24,0.88-0.57,1.19-0.99
	c0.31-0.42,0.54-0.92,0.68-1.49C238.86,816.27,238.94,815.64,238.94,814.97z"/>
<path class="st38" d="M262.61,809.93c0,0.12,0,0.23-0.01,0.31c-0.01,0.09-0.02,0.16-0.04,0.21c-0.02,0.05-0.04,0.09-0.07,0.12
	c-0.03,0.03-0.07,0.04-0.12,0.04c-0.07,0-0.16-0.02-0.26-0.06c-0.1-0.04-0.21-0.08-0.35-0.12c-0.13-0.04-0.28-0.08-0.43-0.12
	c-0.16-0.04-0.33-0.05-0.52-0.05c-0.22,0-0.44,0.05-0.65,0.14c-0.21,0.09-0.44,0.25-0.67,0.46c-0.23,0.21-0.48,0.49-0.74,0.83
	s-0.54,0.77-0.86,1.27v7.55c0,0.05-0.01,0.09-0.04,0.14c-0.02,0.04-0.06,0.07-0.12,0.1c-0.05,0.02-0.13,0.05-0.22,0.06
	c-0.09,0.02-0.22,0.02-0.36,0.02c-0.14,0-0.26-0.01-0.35-0.02c-0.09-0.02-0.17-0.04-0.23-0.06c-0.06-0.02-0.1-0.06-0.12-0.1
	c-0.02-0.04-0.03-0.09-0.03-0.14v-11.16c0-0.05,0.01-0.09,0.03-0.14c0.02-0.04,0.06-0.08,0.12-0.11c0.06-0.03,0.13-0.05,0.22-0.06
	c0.09-0.01,0.2-0.02,0.34-0.02c0.14,0,0.26,0.01,0.35,0.02c0.09,0.01,0.16,0.03,0.21,0.06c0.05,0.03,0.08,0.06,0.1,0.11
	c0.02,0.04,0.03,0.09,0.03,0.14v1.76c0.32-0.47,0.62-0.85,0.89-1.14c0.27-0.29,0.53-0.51,0.78-0.67c0.25-0.16,0.49-0.27,0.72-0.33
	c0.23-0.06,0.47-0.09,0.72-0.09c0.11,0,0.23,0.01,0.37,0.02c0.14,0.01,0.29,0.04,0.45,0.07c0.16,0.03,0.3,0.07,0.43,0.12
	c0.13,0.05,0.22,0.09,0.27,0.12s0.08,0.07,0.1,0.1s0.03,0.07,0.04,0.11c0.01,0.05,0.02,0.11,0.02,0.19
	C262.6,809.71,262.61,809.81,262.61,809.93z"/>
<path class="st38" d="M377.39,820.53c0,0.08-0.03,0.15-0.08,0.19c-0.05,0.05-0.12,0.08-0.21,0.1c-0.09,0.02-0.2,0.03-0.35,0.03
	c-0.14,0-0.26-0.01-0.36-0.03c-0.1-0.02-0.18-0.05-0.23-0.1c-0.05-0.04-0.08-0.11-0.08-0.19v-1.25c-0.5,0.54-1.05,0.96-1.66,1.26
	c-0.6,0.3-1.23,0.44-1.88,0.44c-0.58,0-1.11-0.08-1.57-0.23c-0.46-0.15-0.86-0.37-1.18-0.65c-0.32-0.28-0.57-0.63-0.74-1.03
	c-0.17-0.4-0.26-0.85-0.26-1.36c0-0.62,0.13-1.15,0.38-1.61c0.25-0.46,0.62-0.84,1.09-1.14c0.47-0.3,1.03-0.53,1.69-0.68
	c0.66-0.15,1.39-0.23,2.2-0.23h1.78v-0.96c0-0.48-0.05-0.9-0.15-1.26c-0.1-0.37-0.26-0.67-0.48-0.92c-0.22-0.25-0.51-0.43-0.86-0.55
	c-0.35-0.12-0.79-0.19-1.3-0.19c-0.49,0-0.94,0.06-1.33,0.18c-0.39,0.12-0.74,0.25-1.04,0.4c-0.3,0.15-0.54,0.28-0.73,0.4
	c-0.19,0.12-0.33,0.18-0.41,0.18c-0.05,0-0.09-0.01-0.14-0.02c-0.04-0.02-0.08-0.05-0.11-0.09c-0.03-0.04-0.05-0.1-0.06-0.17
	c-0.01-0.07-0.02-0.15-0.02-0.25c0-0.17,0.01-0.31,0.04-0.41c0.02-0.1,0.09-0.21,0.19-0.31c0.1-0.1,0.29-0.22,0.55-0.36
	c0.26-0.14,0.57-0.27,0.91-0.39c0.34-0.12,0.71-0.22,1.1-0.29s0.79-0.11,1.18-0.11c0.76,0,1.41,0.09,1.94,0.28
	c0.53,0.18,0.95,0.45,1.28,0.8c0.32,0.35,0.56,0.77,0.7,1.28c0.14,0.51,0.21,1.08,0.21,1.72V820.53z M375.93,815.26h-2.04
	c-0.59,0-1.11,0.05-1.55,0.16c-0.44,0.11-0.81,0.26-1.11,0.47c-0.3,0.21-0.52,0.45-0.66,0.74c-0.14,0.29-0.22,0.62-0.22,0.99
	c0,0.64,0.2,1.15,0.61,1.54c0.41,0.38,0.98,0.57,1.72,0.57c0.58,0,1.13-0.15,1.63-0.45c0.51-0.3,1.04-0.76,1.61-1.39V815.26z"/>
<path class="st38" d="M403.84,814.78c0,0.95-0.11,1.81-0.31,2.58s-0.52,1.41-0.92,1.95c-0.41,0.53-0.91,0.95-1.51,1.24
	c-0.6,0.29-1.29,0.44-2.06,0.44c-0.33,0-0.64-0.04-0.93-0.11c-0.29-0.07-0.57-0.18-0.84-0.33c-0.28-0.15-0.55-0.33-0.83-0.55
	c-0.28-0.22-0.57-0.49-0.87-0.8v5.76c0,0.05-0.01,0.09-0.04,0.14c-0.02,0.04-0.06,0.08-0.12,0.11c-0.05,0.03-0.13,0.05-0.22,0.06
	c-0.09,0.01-0.22,0.02-0.36,0.02c-0.14,0-0.26-0.01-0.35-0.02c-0.09-0.01-0.17-0.03-0.23-0.06c-0.06-0.03-0.1-0.06-0.12-0.11
	c-0.02-0.04-0.03-0.09-0.03-0.14v-15.59c0-0.06,0.01-0.11,0.03-0.15c0.02-0.04,0.06-0.07,0.11-0.1c0.05-0.02,0.12-0.04,0.21-0.06
	c0.09-0.01,0.19-0.02,0.31-0.02c0.12,0,0.23,0.01,0.31,0.02c0.08,0.01,0.15,0.03,0.21,0.06c0.06,0.02,0.1,0.06,0.12,0.1
	c0.02,0.04,0.04,0.09,0.04,0.15v1.62c0.35-0.35,0.67-0.66,0.99-0.92c0.31-0.26,0.62-0.48,0.94-0.65c0.31-0.17,0.63-0.3,0.96-0.38
	c0.33-0.08,0.68-0.12,1.05-0.12c0.81,0,1.49,0.15,2.06,0.46c0.57,0.31,1.03,0.73,1.39,1.26c0.36,0.53,0.62,1.16,0.78,1.87
	C403.76,813.22,403.84,813.97,403.84,814.78z M402.3,815.01c0-0.62-0.05-1.23-0.15-1.81c-0.1-0.58-0.27-1.1-0.5-1.55
	c-0.23-0.45-0.55-0.81-0.94-1.09c-0.39-0.27-0.88-0.41-1.47-0.41c-0.3,0-0.59,0.04-0.87,0.12c-0.28,0.08-0.57,0.22-0.87,0.41
	c-0.3,0.19-0.6,0.43-0.92,0.73c-0.32,0.3-0.66,0.67-1.01,1.12v4.86c0.62,0.75,1.21,1.32,1.77,1.72c0.56,0.4,1.15,0.6,1.77,0.6
	c0.57,0,1.05-0.14,1.46-0.41c0.41-0.28,0.74-0.64,0.99-1.09c0.25-0.45,0.44-0.95,0.56-1.52C402.24,816.15,402.3,815.58,402.3,815.01
	z"/>
<path class="st38" d="M429.6,814.78c0,0.95-0.1,1.81-0.31,2.58c-0.21,0.76-0.52,1.41-0.92,1.95c-0.41,0.53-0.91,0.95-1.51,1.24
	s-1.29,0.44-2.06,0.44c-0.33,0-0.64-0.04-0.92-0.11c-0.29-0.07-0.57-0.18-0.85-0.33c-0.28-0.15-0.55-0.33-0.83-0.55
	c-0.28-0.22-0.57-0.49-0.87-0.8v5.76c0,0.05-0.01,0.09-0.04,0.14c-0.02,0.04-0.06,0.08-0.12,0.11c-0.05,0.03-0.13,0.05-0.22,0.06
	c-0.09,0.01-0.22,0.02-0.36,0.02c-0.14,0-0.26-0.01-0.35-0.02c-0.09-0.01-0.17-0.03-0.23-0.06c-0.06-0.03-0.1-0.06-0.12-0.11
	c-0.02-0.04-0.03-0.09-0.03-0.14v-15.59c0-0.06,0.01-0.11,0.03-0.15c0.02-0.04,0.06-0.07,0.11-0.1c0.05-0.02,0.12-0.04,0.21-0.06
	c0.09-0.01,0.19-0.02,0.32-0.02c0.12,0,0.23,0.01,0.31,0.02c0.08,0.01,0.15,0.03,0.21,0.06c0.06,0.02,0.1,0.06,0.12,0.1
	c0.02,0.04,0.04,0.09,0.04,0.15v1.62c0.35-0.35,0.67-0.66,0.99-0.92c0.31-0.26,0.62-0.48,0.94-0.65c0.31-0.17,0.63-0.3,0.96-0.38
	c0.33-0.08,0.68-0.12,1.05-0.12c0.81,0,1.49,0.15,2.06,0.46c0.57,0.31,1.03,0.73,1.39,1.26c0.36,0.53,0.62,1.16,0.78,1.87
	C429.52,813.22,429.6,813.97,429.6,814.78z M428.05,815.01c0-0.62-0.05-1.23-0.15-1.81c-0.1-0.58-0.27-1.1-0.5-1.55
	c-0.23-0.45-0.55-0.81-0.94-1.09c-0.39-0.27-0.88-0.41-1.47-0.41c-0.3,0-0.59,0.04-0.87,0.12c-0.28,0.08-0.57,0.22-0.87,0.41
	c-0.3,0.19-0.6,0.43-0.92,0.73c-0.32,0.3-0.66,0.67-1.01,1.12v4.86c0.62,0.75,1.21,1.32,1.77,1.72c0.56,0.4,1.15,0.6,1.77,0.6
	c0.57,0,1.05-0.14,1.46-0.41c0.41-0.28,0.74-0.64,0.99-1.09c0.25-0.45,0.44-0.95,0.56-1.52
	C427.99,816.15,428.05,815.58,428.05,815.01z"/>
<path class="st38" d="M447.3,805.6c0,0.39-0.07,0.66-0.21,0.8c-0.14,0.14-0.39,0.21-0.76,0.21c-0.36,0-0.61-0.07-0.75-0.2
	c-0.14-0.14-0.2-0.4-0.2-0.8c0-0.39,0.07-0.66,0.21-0.8c0.14-0.14,0.39-0.21,0.76-0.21c0.36,0,0.61,0.07,0.75,0.2
	S447.3,805.21,447.3,805.6z M447.07,820.53c0,0.05-0.01,0.09-0.04,0.14c-0.02,0.04-0.06,0.07-0.12,0.1
	c-0.05,0.02-0.13,0.05-0.22,0.06c-0.09,0.02-0.22,0.02-0.36,0.02c-0.14,0-0.26-0.01-0.35-0.02c-0.09-0.02-0.17-0.04-0.23-0.06
	c-0.06-0.02-0.1-0.06-0.12-0.1c-0.02-0.04-0.03-0.09-0.03-0.14v-11.16c0-0.05,0.01-0.09,0.03-0.14c0.02-0.04,0.06-0.08,0.12-0.11
	c0.06-0.03,0.13-0.05,0.23-0.06c0.09-0.01,0.21-0.02,0.35-0.02c0.15,0,0.27,0.01,0.36,0.02c0.09,0.01,0.17,0.03,0.22,0.06
	c0.05,0.03,0.09,0.06,0.12,0.11c0.02,0.04,0.04,0.09,0.04,0.14V820.53z"/>
<path class="st38" d="M472.92,814.37c0,0.3-0.08,0.5-0.23,0.61c-0.16,0.11-0.31,0.17-0.46,0.17h-7.61c0,0.69,0.07,1.32,0.2,1.88
	c0.14,0.56,0.36,1.04,0.67,1.44s0.72,0.71,1.22,0.92c0.5,0.21,1.12,0.32,1.85,0.32c0.52,0,0.98-0.04,1.39-0.14
	c0.41-0.09,0.77-0.19,1.07-0.3c0.3-0.11,0.55-0.21,0.74-0.3c0.19-0.09,0.33-0.14,0.41-0.14c0.05,0,0.09,0.01,0.14,0.04
	c0.04,0.02,0.07,0.06,0.1,0.12c0.02,0.05,0.04,0.12,0.05,0.2c0.01,0.08,0.02,0.19,0.02,0.31c0,0.06,0,0.11-0.01,0.17
	c-0.01,0.05-0.02,0.1-0.03,0.15c-0.01,0.05-0.03,0.09-0.05,0.13c-0.02,0.04-0.06,0.08-0.1,0.12c-0.04,0.04-0.17,0.11-0.38,0.22
	c-0.21,0.1-0.49,0.21-0.84,0.31c-0.34,0.1-0.75,0.2-1.2,0.28c-0.46,0.08-0.95,0.12-1.47,0.12c-0.86,0-1.63-0.13-2.29-0.39
	c-0.67-0.26-1.22-0.64-1.68-1.15c-0.45-0.51-0.8-1.13-1.03-1.88c-0.23-0.75-0.35-1.62-0.35-2.6c0-0.95,0.12-1.79,0.36-2.54
	c0.24-0.75,0.59-1.38,1.04-1.91c0.45-0.52,1-0.92,1.63-1.2c0.64-0.28,1.35-0.41,2.13-0.41c0.84,0,1.55,0.14,2.15,0.42
	c0.59,0.28,1.08,0.66,1.46,1.13c0.38,0.47,0.66,1.02,0.84,1.65c0.18,0.62,0.27,1.28,0.27,1.97V814.37z M471.4,813.94
	c0.02-1.18-0.25-2.11-0.81-2.78c-0.57-0.67-1.39-1-2.48-1c-0.56,0-1.05,0.11-1.47,0.32c-0.42,0.21-0.78,0.49-1.07,0.83
	c-0.29,0.35-0.52,0.75-0.67,1.2c-0.16,0.46-0.25,0.93-0.27,1.42H471.4z"/>
<path class="st38" d="M495.12,809.93c0,0.12,0,0.23-0.01,0.31c-0.01,0.09-0.02,0.16-0.04,0.21c-0.02,0.05-0.05,0.09-0.07,0.12
	c-0.03,0.03-0.07,0.04-0.12,0.04c-0.07,0-0.16-0.02-0.26-0.06c-0.1-0.04-0.21-0.08-0.35-0.12c-0.13-0.04-0.28-0.08-0.43-0.12
	c-0.16-0.04-0.33-0.05-0.52-0.05c-0.22,0-0.44,0.05-0.65,0.14c-0.21,0.09-0.44,0.25-0.67,0.46c-0.23,0.21-0.48,0.49-0.74,0.83
	s-0.54,0.77-0.86,1.27v7.55c0,0.05-0.01,0.09-0.04,0.14c-0.02,0.04-0.06,0.07-0.12,0.1c-0.05,0.02-0.13,0.05-0.22,0.06
	c-0.09,0.02-0.22,0.02-0.36,0.02c-0.14,0-0.26-0.01-0.35-0.02c-0.09-0.02-0.17-0.04-0.23-0.06s-0.1-0.06-0.12-0.1
	c-0.02-0.04-0.03-0.09-0.03-0.14v-11.16c0-0.05,0.01-0.09,0.03-0.14c0.02-0.04,0.06-0.08,0.12-0.11c0.06-0.03,0.13-0.05,0.22-0.06
	c0.09-0.01,0.2-0.02,0.34-0.02c0.14,0,0.25,0.01,0.34,0.02c0.09,0.01,0.16,0.03,0.21,0.06c0.05,0.03,0.08,0.06,0.11,0.11
	c0.02,0.04,0.03,0.09,0.03,0.14v1.76c0.32-0.47,0.62-0.85,0.89-1.14c0.27-0.29,0.53-0.51,0.78-0.67c0.25-0.16,0.49-0.27,0.72-0.33
	c0.23-0.06,0.47-0.09,0.72-0.09c0.11,0,0.23,0.01,0.37,0.02c0.14,0.01,0.29,0.04,0.45,0.07c0.16,0.03,0.3,0.07,0.43,0.12
	c0.13,0.05,0.22,0.09,0.27,0.12c0.05,0.04,0.08,0.07,0.1,0.1c0.02,0.03,0.03,0.07,0.04,0.11c0.01,0.05,0.02,0.11,0.02,0.19
	C495.12,809.71,495.12,809.81,495.12,809.93z"/>
<path class="st38" d="M510.09,819.28c0,0.22-0.01,0.42-0.03,0.6c-0.02,0.18-0.06,0.35-0.11,0.52s-0.12,0.33-0.2,0.49
	c-0.08,0.16-0.18,0.34-0.31,0.52l-1.71,2.63c-0.03,0.05-0.07,0.09-0.12,0.13c-0.05,0.04-0.1,0.07-0.16,0.09
	c-0.06,0.02-0.13,0.04-0.22,0.06c-0.08,0.01-0.18,0.02-0.31,0.02c-0.09,0-0.17,0-0.23-0.01c-0.07-0.01-0.11-0.03-0.14-0.05
	c-0.03-0.02-0.05-0.05-0.05-0.09c0-0.04,0.01-0.08,0.04-0.14l1.71-3.38v-1.38c0-0.18,0.02-0.33,0.05-0.44s0.09-0.2,0.16-0.25
	c0.07-0.06,0.17-0.1,0.28-0.12c0.12-0.02,0.25-0.03,0.42-0.03c0.16,0,0.29,0.01,0.41,0.03c0.12,0.02,0.21,0.06,0.28,0.12
	c0.07,0.06,0.13,0.14,0.17,0.25C510.08,818.96,510.09,819.1,510.09,819.28z"/>
<path class="st38" d="M577.42,809.93c0,0.12,0,0.23-0.01,0.31c-0.01,0.09-0.02,0.16-0.04,0.21c-0.02,0.05-0.05,0.09-0.07,0.12
	c-0.03,0.03-0.07,0.04-0.12,0.04c-0.07,0-0.16-0.02-0.26-0.06c-0.1-0.04-0.21-0.08-0.35-0.12c-0.13-0.04-0.28-0.08-0.43-0.12
	c-0.16-0.04-0.33-0.05-0.52-0.05c-0.22,0-0.44,0.05-0.65,0.14c-0.21,0.09-0.44,0.25-0.67,0.46c-0.23,0.21-0.48,0.49-0.74,0.83
	c-0.26,0.35-0.54,0.77-0.86,1.27v7.55c0,0.05-0.01,0.09-0.04,0.14c-0.02,0.04-0.06,0.07-0.12,0.1c-0.05,0.02-0.13,0.05-0.22,0.06
	c-0.09,0.02-0.22,0.02-0.36,0.02c-0.14,0-0.26-0.01-0.35-0.02c-0.09-0.02-0.17-0.04-0.23-0.06s-0.1-0.06-0.12-0.1
	c-0.02-0.04-0.03-0.09-0.03-0.14v-11.16c0-0.05,0.01-0.09,0.03-0.14c0.02-0.04,0.06-0.08,0.12-0.11c0.06-0.03,0.13-0.05,0.22-0.06
	c0.09-0.01,0.2-0.02,0.34-0.02c0.14,0,0.25,0.01,0.34,0.02c0.09,0.01,0.16,0.03,0.21,0.06c0.05,0.03,0.08,0.06,0.11,0.11
	c0.02,0.04,0.03,0.09,0.03,0.14v1.76c0.32-0.47,0.62-0.85,0.89-1.14c0.27-0.29,0.53-0.51,0.78-0.67c0.25-0.16,0.49-0.27,0.72-0.33
	c0.23-0.06,0.47-0.09,0.72-0.09c0.11,0,0.23,0.01,0.37,0.02c0.14,0.01,0.29,0.04,0.45,0.07c0.16,0.03,0.3,0.07,0.43,0.12
	c0.13,0.05,0.22,0.09,0.27,0.12c0.05,0.04,0.08,0.07,0.1,0.1c0.02,0.03,0.03,0.07,0.04,0.11c0.01,0.05,0.02,0.11,0.02,0.19
	C577.42,809.71,577.42,809.81,577.42,809.93z"/>
<path class="st38" d="M594.25,805.6c0,0.39-0.07,0.66-0.21,0.8c-0.14,0.14-0.39,0.21-0.76,0.21c-0.36,0-0.61-0.07-0.75-0.2
	c-0.14-0.14-0.2-0.4-0.2-0.8c0-0.39,0.07-0.66,0.21-0.8c0.14-0.14,0.39-0.21,0.76-0.21c0.36,0,0.61,0.07,0.75,0.2
	S594.25,805.21,594.25,805.6z M594.03,820.53c0,0.05-0.01,0.09-0.04,0.14c-0.02,0.04-0.06,0.07-0.12,0.1
	c-0.05,0.02-0.13,0.05-0.22,0.06c-0.09,0.02-0.22,0.02-0.36,0.02c-0.14,0-0.26-0.01-0.35-0.02c-0.09-0.02-0.17-0.04-0.23-0.06
	s-0.1-0.06-0.12-0.1c-0.02-0.04-0.03-0.09-0.03-0.14v-11.16c0-0.05,0.01-0.09,0.03-0.14c0.02-0.04,0.06-0.08,0.12-0.11
	c0.06-0.03,0.13-0.05,0.23-0.06c0.09-0.01,0.21-0.02,0.35-0.02c0.15,0,0.27,0.01,0.36,0.02c0.09,0.01,0.17,0.03,0.22,0.06
	c0.05,0.03,0.09,0.06,0.12,0.11c0.02,0.04,0.04,0.09,0.04,0.14V820.53z"/>
<path class="st38" d="M619.71,809.74c0,0.23-0.04,0.39-0.11,0.48c-0.07,0.09-0.17,0.14-0.28,0.14h-1.76
	c0.35,0.35,0.59,0.74,0.72,1.15c0.14,0.42,0.2,0.85,0.2,1.31c0,0.63-0.1,1.2-0.3,1.69c-0.2,0.49-0.49,0.91-0.86,1.25
	c-0.37,0.34-0.81,0.6-1.32,0.78c-0.51,0.18-1.07,0.27-1.69,0.27c-0.5,0-0.98-0.07-1.43-0.21c-0.45-0.14-0.81-0.31-1.06-0.52
	c-0.16,0.16-0.3,0.35-0.41,0.57c-0.11,0.21-0.16,0.46-0.16,0.74c0,0.31,0.15,0.58,0.45,0.79c0.3,0.21,0.69,0.33,1.17,0.35l3.02,0.12
	c0.51,0.02,0.99,0.09,1.44,0.21c0.45,0.12,0.84,0.31,1.18,0.55c0.34,0.24,0.6,0.54,0.8,0.89c0.2,0.35,0.3,0.77,0.3,1.25
	c0,0.49-0.1,0.97-0.3,1.42c-0.2,0.45-0.51,0.85-0.94,1.19c-0.42,0.34-0.96,0.61-1.62,0.81c-0.66,0.2-1.44,0.3-2.36,0.3
	c-0.87,0-1.61-0.08-2.23-0.23c-0.61-0.15-1.11-0.36-1.51-0.63c-0.39-0.27-0.67-0.58-0.85-0.94c-0.18-0.36-0.27-0.75-0.27-1.17
	c0-0.29,0.03-0.56,0.1-0.81c0.07-0.26,0.17-0.5,0.3-0.73c0.14-0.23,0.3-0.45,0.51-0.67c0.2-0.21,0.43-0.43,0.7-0.65
	c-0.42-0.21-0.73-0.47-0.92-0.78c-0.2-0.3-0.3-0.63-0.3-0.97c0-0.51,0.1-0.96,0.3-1.35c0.2-0.39,0.44-0.74,0.71-1.05
	c-0.24-0.31-0.42-0.65-0.55-1.02c-0.13-0.37-0.2-0.81-0.2-1.33c0-0.62,0.1-1.19,0.31-1.68c0.21-0.5,0.49-0.92,0.86-1.26
	c0.37-0.35,0.8-0.61,1.31-0.8c0.51-0.19,1.07-0.28,1.68-0.28c0.32,0,0.62,0.02,0.91,0.06c0.28,0.04,0.55,0.08,0.78,0.14h3.29
	c0.14,0,0.24,0.05,0.3,0.16C619.68,809.37,619.71,809.53,619.71,809.74z M618.14,821.64c0-0.54-0.22-0.96-0.66-1.25
	c-0.44-0.29-1.03-0.44-1.77-0.47l-3.24-0.11c-0.3,0.23-0.54,0.45-0.73,0.65c-0.19,0.21-0.34,0.41-0.45,0.6
	c-0.11,0.19-0.19,0.38-0.23,0.57c-0.04,0.18-0.06,0.37-0.06,0.56c0,0.61,0.31,1.07,0.92,1.38c0.61,0.31,1.47,0.47,2.56,0.47
	c0.69,0,1.27-0.07,1.73-0.2c0.46-0.14,0.84-0.31,1.13-0.54c0.29-0.22,0.49-0.48,0.62-0.76
	C618.07,822.25,618.14,821.95,618.14,821.64z M616.96,812.84c0-0.85-0.23-1.51-0.7-1.99c-0.46-0.48-1.12-0.72-1.98-0.72
	c-0.44,0-0.82,0.07-1.15,0.22c-0.33,0.15-0.6,0.35-0.81,0.6c-0.21,0.26-0.37,0.55-0.48,0.89c-0.11,0.34-0.16,0.69-0.16,1.07
	c0,0.82,0.23,1.47,0.7,1.94c0.46,0.47,1.12,0.71,1.96,0.71c0.44,0,0.83-0.07,1.17-0.22c0.33-0.15,0.61-0.35,0.82-0.6
	c0.21-0.25,0.37-0.54,0.48-0.88C616.91,813.55,616.96,813.21,616.96,812.84z"/>
<path class="st38" d="M644.3,820.53c0,0.05-0.01,0.09-0.04,0.14c-0.02,0.04-0.06,0.07-0.12,0.1c-0.05,0.02-0.13,0.05-0.22,0.06
	c-0.09,0.02-0.21,0.02-0.35,0.02c-0.15,0-0.27-0.01-0.36-0.02c-0.09-0.02-0.17-0.04-0.22-0.06c-0.05-0.02-0.09-0.06-0.12-0.1
	c-0.02-0.04-0.04-0.09-0.04-0.14v-6.62c0-0.69-0.05-1.25-0.16-1.68c-0.11-0.43-0.27-0.8-0.48-1.11c-0.21-0.31-0.49-0.55-0.82-0.72
	c-0.33-0.17-0.72-0.25-1.17-0.25c-0.57,0-1.14,0.2-1.7,0.6c-0.57,0.4-1.16,0.99-1.79,1.78v8.01c0,0.05-0.01,0.09-0.04,0.14
	c-0.02,0.04-0.06,0.07-0.12,0.1c-0.05,0.02-0.13,0.05-0.22,0.06c-0.09,0.02-0.22,0.02-0.36,0.02c-0.14,0-0.26-0.01-0.35-0.02
	c-0.09-0.02-0.17-0.04-0.23-0.06s-0.1-0.06-0.12-0.1c-0.02-0.04-0.03-0.09-0.03-0.14V803.9c0-0.05,0.01-0.09,0.03-0.14
	c0.02-0.04,0.06-0.08,0.12-0.11c0.06-0.03,0.13-0.05,0.23-0.06s0.21-0.02,0.35-0.02c0.15,0,0.27,0.01,0.36,0.02s0.17,0.03,0.22,0.06
	c0.05,0.03,0.09,0.06,0.12,0.11c0.02,0.04,0.04,0.09,0.04,0.14v6.97c0.61-0.67,1.22-1.17,1.83-1.49c0.61-0.32,1.22-0.48,1.83-0.48
	c0.73,0,1.35,0.12,1.85,0.37c0.5,0.25,0.91,0.58,1.21,1c0.31,0.42,0.53,0.91,0.67,1.47c0.14,0.56,0.2,1.23,0.2,2.02V820.53z"/>
<path class="st38" d="M666.13,819.86c0,0.17-0.01,0.31-0.04,0.42c-0.03,0.11-0.07,0.19-0.14,0.25s-0.15,0.12-0.27,0.17
	c-0.12,0.05-0.26,0.1-0.41,0.14c-0.16,0.04-0.32,0.07-0.49,0.09c-0.17,0.02-0.34,0.03-0.51,0.03c-0.55,0-1.02-0.07-1.41-0.22
	c-0.39-0.15-0.7-0.37-0.95-0.67c-0.25-0.3-0.43-0.68-0.54-1.14c-0.11-0.46-0.17-1-0.17-1.63v-6.94h-1.67
	c-0.12,0-0.21-0.05-0.27-0.15c-0.07-0.1-0.1-0.26-0.1-0.46c0-0.11,0.01-0.2,0.02-0.28c0.02-0.08,0.04-0.14,0.07-0.2
	c0.03-0.05,0.07-0.09,0.12-0.12c0.05-0.02,0.1-0.04,0.15-0.04h1.67v-2.74c0-0.05,0.01-0.09,0.03-0.14c0.02-0.04,0.06-0.08,0.12-0.11
	c0.06-0.03,0.13-0.05,0.23-0.06c0.09-0.01,0.21-0.02,0.35-0.02c0.15,0,0.27,0.01,0.36,0.02s0.17,0.03,0.22,0.06
	c0.05,0.03,0.09,0.06,0.12,0.11c0.02,0.04,0.04,0.09,0.04,0.14v2.74h3.08c0.06,0,0.11,0.01,0.15,0.04c0.05,0.02,0.08,0.06,0.12,0.12
	c0.03,0.05,0.06,0.12,0.07,0.2c0.02,0.08,0.02,0.17,0.02,0.28c0,0.21-0.04,0.36-0.11,0.46c-0.07,0.1-0.16,0.15-0.27,0.15h-3.08v6.75
	c0,0.85,0.12,1.49,0.36,1.94c0.24,0.44,0.68,0.67,1.33,0.67c0.2,0,0.38-0.02,0.54-0.06c0.16-0.04,0.3-0.09,0.43-0.14
	c0.12-0.05,0.23-0.09,0.31-0.14c0.09-0.04,0.16-0.06,0.23-0.06c0.04,0,0.08,0.01,0.11,0.03c0.03,0.02,0.06,0.05,0.08,0.09
	c0.02,0.05,0.04,0.1,0.05,0.17C666.12,819.67,666.13,819.76,666.13,819.86z"/>
<path class="st38" d="M690.54,814.37c0,0.3-0.08,0.5-0.23,0.61c-0.16,0.11-0.31,0.17-0.46,0.17h-7.61c0,0.69,0.07,1.32,0.2,1.88
	c0.14,0.56,0.36,1.04,0.67,1.44s0.72,0.71,1.22,0.92c0.5,0.21,1.12,0.32,1.85,0.32c0.52,0,0.98-0.04,1.39-0.14
	c0.41-0.09,0.77-0.19,1.07-0.3c0.3-0.11,0.55-0.21,0.74-0.3c0.19-0.09,0.33-0.14,0.41-0.14c0.05,0,0.09,0.01,0.14,0.04
	c0.04,0.02,0.07,0.06,0.1,0.12c0.02,0.05,0.04,0.12,0.05,0.2c0.01,0.08,0.02,0.19,0.02,0.31c0,0.06,0,0.11-0.01,0.17
	c-0.01,0.05-0.02,0.1-0.03,0.15c-0.01,0.05-0.03,0.09-0.05,0.13c-0.02,0.04-0.06,0.08-0.1,0.12c-0.04,0.04-0.17,0.11-0.38,0.22
	c-0.21,0.1-0.49,0.21-0.84,0.31c-0.34,0.1-0.75,0.2-1.2,0.28c-0.46,0.08-0.95,0.12-1.47,0.12c-0.86,0-1.63-0.13-2.29-0.39
	c-0.67-0.26-1.23-0.64-1.68-1.15c-0.45-0.51-0.8-1.13-1.03-1.88c-0.23-0.75-0.35-1.62-0.35-2.6c0-0.95,0.12-1.79,0.36-2.54
	c0.24-0.75,0.59-1.38,1.04-1.91c0.45-0.52,1-0.92,1.63-1.2c0.64-0.28,1.35-0.41,2.13-0.41c0.84,0,1.55,0.14,2.15,0.42
	c0.59,0.28,1.08,0.66,1.46,1.13c0.38,0.47,0.66,1.02,0.84,1.65c0.18,0.62,0.27,1.28,0.27,1.97V814.37z M689.02,813.94
	c0.02-1.18-0.25-2.11-0.81-2.78c-0.57-0.67-1.39-1-2.48-1c-0.56,0-1.05,0.11-1.47,0.32c-0.42,0.21-0.78,0.49-1.07,0.83
	c-0.29,0.35-0.52,0.75-0.67,1.2c-0.16,0.46-0.25,0.93-0.27,1.42H689.02z"/>
<path class="st38" d="M712.74,809.93c0,0.12,0,0.23-0.01,0.31c-0.01,0.09-0.02,0.16-0.04,0.21c-0.02,0.05-0.05,0.09-0.07,0.12
	c-0.03,0.03-0.07,0.04-0.12,0.04c-0.07,0-0.16-0.02-0.26-0.06c-0.1-0.04-0.21-0.08-0.35-0.12c-0.13-0.04-0.28-0.08-0.43-0.12
	c-0.16-0.04-0.33-0.05-0.52-0.05c-0.22,0-0.44,0.05-0.65,0.14c-0.21,0.09-0.44,0.25-0.67,0.46c-0.23,0.21-0.48,0.49-0.74,0.83
	s-0.54,0.77-0.86,1.27v7.55c0,0.05-0.01,0.09-0.04,0.14c-0.02,0.04-0.06,0.07-0.12,0.1c-0.05,0.02-0.13,0.05-0.22,0.06
	c-0.09,0.02-0.22,0.02-0.36,0.02c-0.14,0-0.26-0.01-0.35-0.02c-0.09-0.02-0.17-0.04-0.23-0.06c-0.06-0.02-0.1-0.06-0.12-0.1
	c-0.02-0.04-0.03-0.09-0.03-0.14v-11.16c0-0.05,0.01-0.09,0.03-0.14c0.02-0.04,0.06-0.08,0.12-0.11c0.06-0.03,0.13-0.05,0.22-0.06
	c0.09-0.01,0.2-0.02,0.34-0.02c0.14,0,0.25,0.01,0.34,0.02c0.09,0.01,0.16,0.03,0.21,0.06c0.05,0.03,0.08,0.06,0.11,0.11
	c0.02,0.04,0.03,0.09,0.03,0.14v1.76c0.32-0.47,0.62-0.85,0.89-1.14c0.27-0.29,0.53-0.51,0.78-0.67c0.25-0.16,0.49-0.27,0.72-0.33
	c0.23-0.06,0.47-0.09,0.72-0.09c0.11,0,0.23,0.01,0.37,0.02c0.14,0.01,0.29,0.04,0.45,0.07c0.16,0.03,0.3,0.07,0.43,0.12
	c0.13,0.05,0.22,0.09,0.27,0.12c0.05,0.04,0.08,0.07,0.1,0.1c0.02,0.03,0.03,0.07,0.04,0.11c0.01,0.05,0.02,0.11,0.02,0.19
	C712.74,809.71,712.74,809.81,712.74,809.93z"/>
<path class="st38" d="M779.49,820.53c0,0.05-0.01,0.09-0.03,0.14c-0.02,0.04-0.06,0.07-0.12,0.1s-0.13,0.05-0.22,0.06
	c-0.09,0.02-0.2,0.02-0.33,0.02c-0.15,0-0.27-0.01-0.36-0.02c-0.09-0.02-0.16-0.04-0.21-0.06c-0.05-0.02-0.09-0.06-0.11-0.1
	c-0.02-0.04-0.03-0.09-0.03-0.14v-1.58c-0.64,0.71-1.27,1.23-1.88,1.55c-0.61,0.32-1.22,0.48-1.83,0.48c-0.73,0-1.35-0.12-1.85-0.37
	c-0.5-0.25-0.91-0.58-1.22-1.01c-0.31-0.42-0.53-0.92-0.67-1.47c-0.14-0.56-0.2-1.23-0.2-2.02v-6.75c0-0.05,0.01-0.09,0.03-0.14
	c0.02-0.04,0.06-0.08,0.12-0.11c0.06-0.03,0.13-0.05,0.23-0.06c0.09-0.01,0.21-0.02,0.35-0.02c0.15,0,0.27,0.01,0.36,0.02
	c0.09,0.01,0.17,0.03,0.22,0.06c0.05,0.03,0.09,0.06,0.12,0.11c0.02,0.04,0.04,0.09,0.04,0.14v6.61c0,0.69,0.05,1.25,0.16,1.69
	c0.11,0.44,0.27,0.81,0.48,1.12c0.21,0.31,0.49,0.55,0.82,0.71c0.33,0.17,0.72,0.25,1.17,0.25c0.57,0,1.13-0.2,1.7-0.6
	c0.56-0.4,1.16-0.99,1.79-1.78v-8.01c0-0.05,0.01-0.09,0.03-0.14c0.02-0.04,0.06-0.08,0.12-0.11c0.06-0.03,0.13-0.05,0.23-0.06
	c0.09-0.01,0.22-0.02,0.36-0.02c0.14,0,0.26,0.01,0.35,0.02c0.09,0.01,0.17,0.03,0.22,0.06c0.05,0.03,0.09,0.06,0.12,0.11
	c0.02,0.04,0.04,0.09,0.04,0.14V820.53z"/>
<path class="st38" d="M801.62,819.86c0,0.17-0.01,0.31-0.04,0.42c-0.03,0.11-0.07,0.19-0.14,0.25s-0.15,0.12-0.27,0.17
	c-0.12,0.05-0.26,0.1-0.41,0.14c-0.16,0.04-0.32,0.07-0.49,0.09c-0.17,0.02-0.34,0.03-0.51,0.03c-0.55,0-1.02-0.07-1.41-0.22
	c-0.39-0.15-0.7-0.37-0.95-0.67c-0.25-0.3-0.43-0.68-0.54-1.14c-0.11-0.46-0.17-1-0.17-1.63v-6.94h-1.67
	c-0.12,0-0.21-0.05-0.27-0.15c-0.07-0.1-0.1-0.26-0.1-0.46c0-0.11,0.01-0.2,0.02-0.28c0.02-0.08,0.04-0.14,0.07-0.2
	c0.03-0.05,0.07-0.09,0.12-0.12c0.05-0.02,0.1-0.04,0.15-0.04h1.67v-2.74c0-0.05,0.01-0.09,0.03-0.14c0.02-0.04,0.06-0.08,0.12-0.11
	c0.06-0.03,0.13-0.05,0.23-0.06c0.09-0.01,0.21-0.02,0.35-0.02c0.15,0,0.27,0.01,0.36,0.02s0.17,0.03,0.22,0.06
	c0.05,0.03,0.09,0.06,0.12,0.11c0.02,0.04,0.04,0.09,0.04,0.14v2.74h3.08c0.06,0,0.11,0.01,0.15,0.04c0.05,0.02,0.08,0.06,0.12,0.12
	c0.03,0.05,0.06,0.12,0.07,0.2c0.02,0.08,0.02,0.17,0.02,0.28c0,0.21-0.04,0.36-0.11,0.46c-0.07,0.1-0.16,0.15-0.27,0.15h-3.08v6.75
	c0,0.85,0.12,1.49,0.36,1.94c0.24,0.44,0.68,0.67,1.33,0.67c0.2,0,0.38-0.02,0.54-0.06c0.16-0.04,0.3-0.09,0.43-0.14
	c0.12-0.05,0.23-0.09,0.31-0.14c0.09-0.04,0.16-0.06,0.23-0.06c0.04,0,0.08,0.01,0.11,0.03c0.03,0.02,0.06,0.05,0.08,0.09
	c0.02,0.05,0.04,0.1,0.05,0.17C801.61,819.67,801.62,819.76,801.62,819.86z"/>
<path class="st38" d="M826.18,820.53c0,0.05-0.01,0.09-0.03,0.14c-0.02,0.04-0.06,0.07-0.12,0.1s-0.13,0.05-0.22,0.06
	c-0.09,0.02-0.2,0.02-0.33,0.02c-0.15,0-0.27-0.01-0.36-0.02c-0.09-0.02-0.16-0.04-0.21-0.06c-0.05-0.02-0.09-0.06-0.11-0.1
	c-0.02-0.04-0.03-0.09-0.03-0.14v-1.58c-0.64,0.71-1.27,1.23-1.88,1.55c-0.61,0.32-1.22,0.48-1.83,0.48c-0.73,0-1.35-0.12-1.85-0.37
	c-0.5-0.25-0.91-0.58-1.22-1.01c-0.31-0.42-0.53-0.92-0.67-1.47c-0.14-0.56-0.2-1.23-0.2-2.02v-6.75c0-0.05,0.01-0.09,0.03-0.14
	c0.02-0.04,0.06-0.08,0.12-0.11c0.06-0.03,0.13-0.05,0.23-0.06c0.09-0.01,0.21-0.02,0.35-0.02c0.15,0,0.27,0.01,0.36,0.02
	c0.09,0.01,0.17,0.03,0.22,0.06c0.05,0.03,0.09,0.06,0.12,0.11c0.02,0.04,0.04,0.09,0.04,0.14v6.61c0,0.69,0.05,1.25,0.16,1.69
	c0.11,0.44,0.27,0.81,0.48,1.12c0.21,0.31,0.49,0.55,0.82,0.71c0.33,0.17,0.72,0.25,1.17,0.25c0.57,0,1.13-0.2,1.7-0.6
	c0.56-0.4,1.16-0.99,1.79-1.78v-8.01c0-0.05,0.01-0.09,0.03-0.14c0.02-0.04,0.06-0.08,0.12-0.11c0.06-0.03,0.13-0.05,0.23-0.06
	c0.09-0.01,0.22-0.02,0.36-0.02c0.14,0,0.26,0.01,0.35,0.02c0.09,0.01,0.17,0.03,0.22,0.06c0.05,0.03,0.09,0.06,0.12,0.11
	c0.02,0.04,0.04,0.09,0.04,0.14V820.53z"/>
<path class="st38" d="M849.12,809.93c0,0.12,0,0.23-0.01,0.31c-0.01,0.09-0.02,0.16-0.04,0.21c-0.02,0.05-0.05,0.09-0.07,0.12
	c-0.03,0.03-0.07,0.04-0.12,0.04c-0.07,0-0.16-0.02-0.26-0.06c-0.1-0.04-0.21-0.08-0.35-0.12c-0.13-0.04-0.28-0.08-0.43-0.12
	c-0.16-0.04-0.33-0.05-0.52-0.05c-0.22,0-0.44,0.05-0.65,0.14c-0.21,0.09-0.44,0.25-0.67,0.46c-0.23,0.21-0.48,0.49-0.74,0.83
	c-0.26,0.35-0.54,0.77-0.86,1.27v7.55c0,0.05-0.01,0.09-0.04,0.14c-0.02,0.04-0.06,0.07-0.12,0.1c-0.05,0.02-0.13,0.05-0.22,0.06
	c-0.09,0.02-0.22,0.02-0.36,0.02c-0.14,0-0.26-0.01-0.35-0.02c-0.09-0.02-0.17-0.04-0.23-0.06s-0.1-0.06-0.12-0.1
	c-0.02-0.04-0.03-0.09-0.03-0.14v-11.16c0-0.05,0.01-0.09,0.03-0.14c0.02-0.04,0.06-0.08,0.12-0.11c0.06-0.03,0.13-0.05,0.22-0.06
	c0.09-0.01,0.2-0.02,0.34-0.02c0.14,0,0.25,0.01,0.34,0.02c0.09,0.01,0.16,0.03,0.21,0.06c0.05,0.03,0.08,0.06,0.11,0.11
	c0.02,0.04,0.03,0.09,0.03,0.14v1.76c0.32-0.47,0.62-0.85,0.89-1.14c0.27-0.29,0.53-0.51,0.78-0.67c0.25-0.16,0.49-0.27,0.72-0.33
	c0.23-0.06,0.47-0.09,0.72-0.09c0.11,0,0.23,0.01,0.37,0.02c0.14,0.01,0.29,0.04,0.45,0.07c0.16,0.03,0.3,0.07,0.43,0.12
	c0.13,0.05,0.22,0.09,0.27,0.12c0.05,0.04,0.08,0.07,0.1,0.1c0.02,0.03,0.03,0.07,0.04,0.11c0.01,0.05,0.02,0.11,0.02,0.19
	C849.12,809.71,849.12,809.81,849.12,809.93z"/>
<path class="st38" d="M873,814.37c0,0.3-0.08,0.5-0.23,0.61c-0.16,0.11-0.31,0.17-0.46,0.17h-7.61c0,0.69,0.07,1.32,0.2,1.88
	c0.14,0.56,0.36,1.04,0.67,1.44c0.31,0.4,0.72,0.71,1.22,0.92c0.5,0.21,1.12,0.32,1.85,0.32c0.52,0,0.98-0.04,1.39-0.14
	c0.41-0.09,0.77-0.19,1.07-0.3c0.3-0.11,0.55-0.21,0.74-0.3c0.19-0.09,0.33-0.14,0.41-0.14c0.05,0,0.09,0.01,0.14,0.04
	c0.04,0.02,0.07,0.06,0.1,0.12c0.02,0.05,0.04,0.12,0.05,0.2c0.01,0.08,0.02,0.19,0.02,0.31c0,0.06,0,0.11-0.01,0.17
	c-0.01,0.05-0.02,0.1-0.03,0.15c-0.01,0.05-0.03,0.09-0.05,0.13c-0.02,0.04-0.06,0.08-0.1,0.12c-0.04,0.04-0.17,0.11-0.38,0.22
	c-0.21,0.1-0.49,0.21-0.84,0.31c-0.34,0.1-0.75,0.2-1.2,0.28c-0.46,0.08-0.95,0.12-1.47,0.12c-0.86,0-1.63-0.13-2.29-0.39
	c-0.67-0.26-1.22-0.64-1.68-1.15c-0.45-0.51-0.8-1.13-1.03-1.88c-0.23-0.75-0.35-1.62-0.35-2.6c0-0.95,0.12-1.79,0.36-2.54
	c0.24-0.75,0.59-1.38,1.04-1.91c0.45-0.52,1-0.92,1.63-1.2c0.64-0.28,1.35-0.41,2.13-0.41c0.84,0,1.55,0.14,2.15,0.42
	c0.59,0.28,1.08,0.66,1.46,1.13c0.38,0.47,0.66,1.02,0.84,1.65c0.18,0.62,0.27,1.28,0.27,1.97V814.37z M871.48,813.94
	c0.02-1.18-0.25-2.11-0.81-2.78c-0.57-0.67-1.39-1-2.48-1c-0.56,0-1.05,0.11-1.47,0.32c-0.42,0.21-0.78,0.49-1.07,0.83
	c-0.29,0.35-0.52,0.75-0.67,1.2c-0.16,0.46-0.25,0.93-0.27,1.42H871.48z"/>
<g>
	<path class="st39" d="M559.26,487.49c-1.03,2.88-3.16,12.66-3.16,12.66c-5.98-1.47-9.95-0.74-12.24,0.4
		c-0.4,0.2-0.78,0.45-1.13,0.73c-0.04,0.04-0.09,0.07-0.13,0.11c-0.13,0.11-0.26,0.23-0.38,0.35c-0.6,0.59-1.27,1.05-1.55,1.24
		c-0.69,0.47-1.58,0.56-2.33,0.18c-1.96-0.99-0.74-3.94-0.74-3.94c0.14-0.36,0.28-0.72,0.43-1.07c0.01-0.02,0.01-0.03,0.02-0.05
		c5.21-12.38,17.25-19.58,17.35-19.63c-3.08,2.75-6.62,8.95-6.62,8.95c-8.22,5.56-9.3,9.62-9.59,10.55c0.12,0,0.26,0.02,0.33,0.03
		c0,0,0,0,0,0c0.03,0,0.04,0.01,0.04,0.01c0,0,0,0,0,0c4.54-7.53,9.95-9.36,9.95-9.36c2.07-4.54,6.79-8.31,6.87-8.37
		c-3.75,4.37-5.99,9.91-5.99,9.91c-7.28,2.56-9.71,7.03-10.11,7.95c0.13,0.04,0.27,0.08,0.4,0.14c5.44-6.51,10.34-7.01,10.34-7.01
		c1.2-4.17,6.17-9.12,6.24-9.2c-2.54,3.08-5.49,10.49-5.49,10.49c-5.73,0.24-10.17,5.54-10.55,6c0.15,0.1,0.3,0.22,0.44,0.36
		c5.95-5.9,10.73-5.28,10.73-5.28c0.45-2.97,5.62-9.88,5.7-9.99c-2.37,3.75-4.87,11.4-4.87,11.4c-5.52-0.38-10.44,3.55-11.25,4.23
		c0.11,0.15,0.22,0.32,0.31,0.51c4.19-4.03,11.44-3.82,11.44-3.82c2.19-7.23,5.28-10.32,5.33-10.36c-1.5,1.96-4.41,11.95-4.41,11.95
		c-7.83-0.55-11.21,1.88-12.12,2.79c0.03,0.1,0.06,0.2,0.09,0.31c5.44-3.49,12.76-2.49,12.76-2.49
		C555.9,495.12,558.35,489.5,559.26,487.49z"/>
	<path class="st40" d="M532.14,480.54c1.98,2.33,9.39,9.07,9.39,9.07c-4.26,4.44-5.61,8.25-5.77,10.8c-0.03,0.45,0,0.9,0.07,1.35
		c0.01,0.06,0.02,0.11,0.03,0.17c0.03,0.17,0.07,0.34,0.11,0.5c0.21,0.82,0.27,1.62,0.3,1.96c0.06,0.83-0.31,1.65-1.01,2.1
		c-1.84,1.2-3.79-1.33-3.79-1.33c-0.24-0.3-0.48-0.6-0.71-0.9c-0.01-0.01-0.02-0.03-0.03-0.04c-8.11-10.7-8.33-24.73-8.33-24.84
		c0.84,4.04,4.44,10.21,4.44,10.21c0.7,9.9,3.68,12.87,4.34,13.59c0.06-0.1,0.15-0.21,0.19-0.27c0,0,0,0,0,0
		c0.02-0.02,0.03-0.03,0.03-0.03c0,0,0,0,0,0c-4.25-7.69-3.13-13.29-3.13-13.29c-2.9-4.06-3.8-10.04-3.81-10.13
		c1.91,5.43,5.58,10.14,5.58,10.14c-1.42,7.58,1.23,11.93,1.83,12.73c0.1-0.1,0.2-0.19,0.32-0.28c-2.91-7.97-0.9-12.46-0.9-12.46
		c-3.01-3.12-4.82-9.9-4.84-10.01c1.4,3.74,6.34,10,6.34,10c-2.66,5.09-0.28,11.58-0.07,12.14c0.16-0.08,0.34-0.15,0.53-0.2
		c-2.13-8.1,0.79-11.93,0.79-11.93c-2.35-1.88-5.75-9.81-5.8-9.93c2.06,3.93,7.44,9.92,7.44,9.92c-3.09,4.59-2.15,10.82-1.96,11.86
		c0.19-0.02,0.39-0.03,0.6-0.02c-1.39-5.64,2.41-11.82,2.41-11.82c-5.16-5.51-6.29-9.73-6.31-9.8c0.95,2.28,8.14,9.79,8.14,9.79
		c-4.39,6.51-3.97,10.65-3.65,11.89c0.1,0.02,0.21,0.04,0.31,0.07c-0.3-6.45,4.22-12.29,4.22-12.29
		C537.06,487.27,533.43,482.33,532.14,480.54z"/>
	<path class="st41" d="M512.57,500.55c3.01-0.55,12.54-3.6,12.54-3.6c1.72,5.91,4.34,8.98,6.47,10.4c0.38,0.25,0.78,0.45,1.2,0.61
		c0.05,0.02,0.11,0.04,0.16,0.06c0.16,0.06,0.33,0.11,0.49,0.15c0.81,0.22,1.54,0.58,1.84,0.72c0.75,0.36,1.27,1.09,1.32,1.93
		c0.12,2.19-3.04,2.62-3.04,2.62c-0.38,0.06-0.76,0.12-1.14,0.16c-0.02,0-0.03,0-0.05,0.01c-13.33,1.68-25.58-5.15-25.68-5.21
		c3.92,1.29,11.06,1.26,11.06,1.26c8.92,4.34,12.98,3.25,13.94,3.03c-0.06-0.1-0.11-0.23-0.14-0.3c0,0,0,0,0,0
		c-0.01-0.03-0.02-0.04-0.02-0.04c0,0,0,0,0,0c-8.79-0.16-13.08-3.93-13.08-3.93c-4.97,0.48-10.59-1.73-10.68-1.76
		c5.66,1.06,11.58,0.24,11.58,0.24c5.86,5.02,10.95,4.9,11.94,4.78c-0.03-0.13-0.06-0.27-0.08-0.41
		c-8.36-1.46-11.24-5.45-11.24-5.45c-4.21,1.05-10.98-0.78-11.09-0.81c3.94,0.66,11.83-0.49,11.83-0.49
		c3.07,4.85,9.89,6.04,10.47,6.13c0.01-0.18,0.04-0.37,0.09-0.56c-8.08-2.21-9.94-6.65-9.94-6.65c-2.8,1.09-11.37,0.07-11.5,0.06
		c4.43,0.18,12.31-1.49,12.31-1.49c2.43,4.97,8.3,7.27,9.29,7.63c0.08-0.17,0.17-0.35,0.28-0.52c-5.58-1.61-9.03-7.99-9.03-7.99
		c-7.35,1.72-11.57,0.59-11.64,0.57c2.44,0.32,12.55-2.15,12.55-2.15c3.44,7.06,7.24,8.76,8.48,9.1c0.07-0.08,0.14-0.16,0.22-0.23
		c-5.74-2.96-8.54-9.8-8.54-9.8C520.85,499.65,514.76,500.33,512.57,500.55z"/>
	<path class="st42" d="M520.1,527.51c1.03-2.88,3.16-12.66,3.16-12.66c5.98,1.47,9.95,0.74,12.24-0.4c0.4-0.2,0.78-0.45,1.13-0.73
		c0.04-0.04,0.09-0.07,0.13-0.11c0.13-0.11,0.26-0.23,0.38-0.35c0.6-0.59,1.27-1.05,1.55-1.24c0.69-0.47,1.58-0.56,2.33-0.18
		c1.96,0.99,0.74,3.94,0.74,3.94c-0.14,0.36-0.28,0.72-0.43,1.07c-0.01,0.02-0.01,0.03-0.02,0.05
		c-5.21,12.38-17.25,19.58-17.35,19.63c3.08-2.75,6.62-8.95,6.62-8.95c8.22-5.56,9.3-9.62,9.59-10.55c-0.12,0-0.26-0.02-0.33-0.03
		c0,0,0,0,0,0c-0.03,0-0.04-0.01-0.04-0.01c0,0,0,0,0,0c-4.54,7.53-9.95,9.36-9.95,9.36c-2.07,4.54-6.79,8.31-6.87,8.37
		c3.75-4.37,5.99-9.91,5.99-9.91c7.28-2.56,9.71-7.03,10.11-7.95c-0.13-0.04-0.27-0.08-0.4-0.14c-5.44,6.51-10.34,7.01-10.34,7.01
		c-1.2,4.17-6.17,9.12-6.24,9.2c2.54-3.08,5.49-10.49,5.49-10.49c5.73-0.24,10.17-5.54,10.55-6c-0.15-0.1-0.3-0.22-0.44-0.36
		c-5.95,5.9-10.73,5.28-10.73,5.28c-0.45,2.97-5.62,9.88-5.7,9.99c2.37-3.75,4.87-11.4,4.87-11.4c5.52,0.38,10.44-3.55,11.25-4.23
		c-0.11-0.15-0.22-0.32-0.31-0.51c-4.19,4.03-11.44,3.82-11.44,3.82c-2.19,7.23-5.28,10.32-5.33,10.36
		c1.5-1.96,4.41-11.95,4.41-11.95c7.83,0.55,11.21-1.88,12.12-2.79c-0.03-0.1-0.06-0.2-0.09-0.31c-5.44,3.49-12.76,2.49-12.76,2.49
		C523.47,519.88,521.01,525.5,520.1,527.51z"/>
	<path class="st43" d="M547.22,534.46c-1.98-2.33-9.39-9.07-9.39-9.07c4.26-4.44,5.61-8.25,5.77-10.8c0.03-0.45,0-0.9-0.07-1.35
		c-0.01-0.06-0.02-0.11-0.03-0.17c-0.03-0.17-0.07-0.34-0.11-0.5c-0.21-0.82-0.27-1.62-0.3-1.96c-0.06-0.83,0.31-1.65,1.01-2.1
		c1.84-1.2,3.79,1.33,3.79,1.33c0.24,0.3,0.48,0.6,0.71,0.9c0.01,0.01,0.02,0.03,0.03,0.04c8.11,10.7,8.33,24.73,8.33,24.84
		c-0.84-4.04-4.44-10.21-4.44-10.21c-0.7-9.9-3.68-12.87-4.34-13.59c-0.06,0.1-0.15,0.21-0.19,0.27c0,0,0,0,0,0
		c-0.02,0.02-0.03,0.03-0.03,0.03c0,0,0,0,0,0c4.25,7.69,3.13,13.29,3.13,13.29c2.9,4.06,3.8,10.04,3.81,10.13
		c-1.91-5.43-5.58-10.14-5.58-10.14c1.42-7.58-1.23-11.93-1.83-12.73c-0.1,0.1-0.2,0.19-0.32,0.28c2.91,7.97,0.9,12.46,0.9,12.46
		c3.01,3.12,4.82,9.9,4.84,10.01c-1.4-3.74-6.34-10-6.34-10c2.66-5.09,0.28-11.58,0.07-12.14c-0.16,0.08-0.34,0.15-0.53,0.2
		c2.13,8.1-0.79,11.93-0.79,11.93c2.35,1.88,5.75,9.81,5.8,9.93c-2.06-3.93-7.44-9.92-7.44-9.92c3.09-4.59,2.15-10.82,1.96-11.86
		c-0.19,0.02-0.39,0.03-0.6,0.02c1.39,5.64-2.41,11.82-2.41,11.82c5.16,5.51,6.29,9.73,6.31,9.8c-0.95-2.28-8.14-9.79-8.14-9.79
		c4.39-6.51,3.97-10.65,3.65-11.89c-0.1-0.02-0.21-0.04-0.31-0.07c0.3,6.45-4.22,12.29-4.22,12.29
		C542.3,527.73,545.93,532.67,547.22,534.46z"/>
	<path class="st44" d="M566.8,514.45c-3.01,0.55-12.54,3.6-12.54,3.6c-1.72-5.91-4.34-8.98-6.47-10.4c-0.38-0.25-0.78-0.45-1.2-0.61
		c-0.05-0.02-0.11-0.04-0.16-0.06c-0.16-0.06-0.33-0.11-0.49-0.15c-0.81-0.22-1.54-0.58-1.84-0.72c-0.75-0.36-1.27-1.09-1.32-1.93
		c-0.12-2.19,3.04-2.62,3.04-2.62c0.38-0.06,0.76-0.12,1.14-0.16c0.02,0,0.03,0,0.05-0.01c13.33-1.68,25.58,5.15,25.68,5.21
		c-3.92-1.29-11.06-1.26-11.06-1.26c-8.92-4.34-12.98-3.25-13.94-3.03c0.06,0.1,0.11,0.23,0.14,0.3c0,0,0,0,0,0
		c0.01,0.03,0.02,0.04,0.02,0.04c0,0,0,0,0,0c8.79,0.16,13.08,3.93,13.08,3.93c4.97-0.48,10.59,1.73,10.68,1.76
		c-5.66-1.06-11.58-0.24-11.58-0.24c-5.86-5.02-10.95-4.9-11.94-4.78c0.03,0.13,0.06,0.27,0.08,0.41
		c8.36,1.46,11.24,5.45,11.24,5.45c4.21-1.05,10.98,0.78,11.09,0.81c-3.94-0.66-11.83,0.49-11.83,0.49
		c-3.07-4.85-9.89-6.04-10.47-6.13c-0.01,0.18-0.04,0.37-0.09,0.56c8.08,2.21,9.94,6.65,9.94,6.65c2.8-1.09,11.37-0.07,11.5-0.06
		c-4.43-0.18-12.31,1.49-12.31,1.49c-2.43-4.97-8.3-7.27-9.29-7.63c-0.08,0.17-0.17,0.35-0.28,0.52c5.58,1.61,9.03,7.99,9.03,7.99
		c7.35-1.72,11.57-0.59,11.64-0.57c-2.44-0.32-12.55,2.15-12.55,2.15c-3.44-7.06-7.24-8.76-8.48-9.1c-0.07,0.08-0.14,0.16-0.22,0.23
		c5.74,2.96,8.54,9.8,8.54,9.8C558.51,515.35,564.6,514.67,566.8,514.45z"/>
</g>
<g>
	<path class="st38" d="M329.37,768.26c-0.96,0.85-2.14,1.28-3.54,1.28h-3.43v9.15h-1.03v-18.3h4.46c1.4,0,2.58,0.41,3.54,1.23
		c0.96,0.82,1.43,1.92,1.43,3.31C330.8,766.33,330.33,767.44,329.37,768.26z M328.57,762.32c-0.7-0.58-1.62-0.87-2.77-0.87h-3.41
		v7.05h3.41c1.13,0,2.07-0.31,2.82-0.92c0.75-0.65,1.13-1.53,1.13-2.64C329.75,763.82,329.36,762.95,328.57,762.32z"/>
	<path class="st38" d="M362.61,778.69l-5.82-9.15h-1.97v9.15h-1.03v-18.3h4.23c0.68,0,1.33,0.1,1.95,0.3
		c0.61,0.2,1.14,0.49,1.59,0.87c0.44,0.38,0.8,0.86,1.06,1.42c0.26,0.56,0.4,1.21,0.4,1.95c0,0.8-0.12,1.5-0.37,2.08
		c-0.25,0.58-0.6,1.06-1.05,1.43c-0.45,0.38-0.99,0.65-1.6,0.83c-0.62,0.18-1.29,0.27-2.03,0.27l5.87,9.15H362.61z M361.63,763.38
		c-0.2-0.44-0.49-0.79-0.85-1.08c-0.36-0.28-0.78-0.49-1.26-0.64c-0.48-0.15-0.99-0.22-1.54-0.22h-3.18v7.05h3.46
		c1.09,0,1.98-0.31,2.65-0.92c0.67-0.61,1.01-1.5,1.01-2.66C361.94,764.32,361.84,763.82,361.63,763.38z"/>
	<path class="st38" d="M386.72,778.69v-18.3h1.02v18.3H386.72z"/>
	<path class="st38" d="M415.84,779l-5.87-18.61h1.08l4.79,15.12l4.82-15.12h1.1L415.84,779z"/>
	<path class="st38" d="M453.41,778.69l-2.1-5.48h-8.33l-2.13,5.48h-1.02l7.3-18.89l7.33,18.89H453.41z M447.13,762.47l-3.74,9.69
		h7.48L447.13,762.47z"/>
	<path class="st38" d="M478.75,761.44v17.25h-1.05v-17.25h-4.05v-1.05h9.15v1.05H478.75z"/>
	<path class="st38" d="M504.81,778.69v-18.3h8.79v1.05h-7.74v6.66h7.74v1.13h-7.74v8.41h7.74v1.05H504.81z"/>
	<path class="st38" d="M571.44,778.54c-0.67,0.24-1.45,0.36-2.36,0.36c-2.8,0-4.6-1.32-5.41-3.97l1.05-0.36
		c0.6,2.19,2.05,3.28,4.36,3.28c1.32,0,2.35-0.33,3.1-0.97c0.77-0.67,1.15-1.64,1.15-2.92c0-1.21-0.45-2.22-1.36-3.02
		c-0.24-0.22-0.61-0.47-1.1-0.74c-0.5-0.27-1.13-0.58-1.9-0.92c-1.45-0.65-2.44-1.21-2.97-1.69c-0.89-0.77-1.33-1.78-1.33-3.05
		c0-1.26,0.45-2.28,1.36-3.05c0.89-0.79,1.98-1.18,3.28-1.18c2.15,0,3.67,0.8,4.56,2.41l-1,0.44c-0.34-0.56-0.75-0.98-1.23-1.26
		c-0.6-0.38-1.38-0.56-2.33-0.56c-1.01,0-1.85,0.28-2.51,0.85c-0.72,0.6-1.08,1.38-1.08,2.36c0,0.87,0.38,1.63,1.13,2.28
		c0.43,0.34,1.28,0.8,2.56,1.38c0.8,0.36,1.49,0.71,2.08,1.06c0.58,0.35,1.05,0.7,1.41,1.06c0.99,0.97,1.49,2.19,1.49,3.64
		C574.39,776.27,573.41,777.8,571.44,778.54z"/>
	<path class="st38" d="M610.5,777.62c-0.96,0.7-2.26,1.13-3.9,1.28c-0.19,0.02-0.39,0.03-0.61,0.04c-0.22,0.01-0.45,0.01-0.69,0.01
		c-2.77,0-5.02-0.87-6.77-2.61c-1.76-1.76-2.64-4.02-2.64-6.79c0-2.77,0.87-5.02,2.61-6.77c1.76-1.76,4.02-2.64,6.79-2.64
		c1.57,0,2.99,0.23,4.25,0.69c0.75,0.29,1.48,0.71,2.18,1.26v1.31c-0.72-0.6-1.5-1.08-2.36-1.43c-1.3-0.53-2.66-0.79-4.07-0.79
		c-2.43,0-4.43,0.79-6,2.36c-1.57,1.57-2.36,3.58-2.36,6.02c0,2.44,0.78,4.44,2.33,6c1.57,1.57,3.58,2.36,6.02,2.36
		c1.52,0,2.84-0.27,3.97-0.82c0.65-0.33,1.47-0.85,2.46-1.56v1.2L610.5,777.62z"/>
	<path class="st38" d="M644.84,778.69v-9.53h-10.07v9.53h-1.03v-18.3h1.03v7.71h10.07v-7.71h1.05v18.3H644.84z"/>
	<path class="st38" d="M685.54,776.31c-1.76,1.76-4.02,2.64-6.79,2.64c-2.77,0-5.02-0.87-6.76-2.61c-1.76-1.76-2.64-4.02-2.64-6.79
		c0-2.77,0.87-5.02,2.61-6.77c1.76-1.76,4.02-2.64,6.79-2.64c2.75,0,5.01,0.87,6.79,2.61c1.76,1.76,2.64,4.02,2.64,6.79
		C688.18,772.31,687.3,774.57,685.54,776.31z M684.8,763.52c-1.57-1.57-3.59-2.36-6.05-2.36c-2.43,0-4.42,0.79-6,2.36
		c-1.57,1.57-2.36,3.58-2.36,6.02c0,2.44,0.78,4.44,2.33,6c1.57,1.57,3.58,2.36,6.02,2.36c2.46,0,4.48-0.77,6.05-2.31
		c1.55-1.55,2.33-3.57,2.33-6.05C687.13,767.08,686.35,765.08,684.8,763.52z"/>
	<path class="st38" d="M726.41,776.31c-1.76,1.76-4.02,2.64-6.79,2.64c-2.77,0-5.02-0.87-6.76-2.61c-1.76-1.76-2.64-4.02-2.64-6.79
		c0-2.77,0.87-5.02,2.61-6.77c1.76-1.76,4.02-2.64,6.79-2.64c2.75,0,5.01,0.87,6.79,2.61c1.76,1.76,2.64,4.02,2.64,6.79
		C729.05,772.31,728.17,774.57,726.41,776.31z M725.67,763.52c-1.57-1.57-3.59-2.36-6.05-2.36c-2.43,0-4.42,0.79-6,2.36
		c-1.57,1.57-2.36,3.58-2.36,6.02c0,2.44,0.78,4.44,2.33,6c1.57,1.57,3.58,2.36,6.02,2.36c2.46,0,4.48-0.77,6.05-2.31
		c1.55-1.55,2.33-3.57,2.33-6.05C728,767.08,727.23,765.08,725.67,763.52z"/>
	<path class="st38" d="M752.45,778.69v-18.3h1.02v17.25h5.15v1.05H752.45z"/>
</g>
<g>
	<g>
		<path class="st38" d="M305.12,822.67l-0.13-1.7h-0.1c-0.58,1.18-1.57,1.95-2.88,1.95c-1.89,0-3.39-1.6-3.39-4.22
			c0-3.71,2.78-5.44,6.27-5.47v-0.58c0-2.62-0.42-4.38-2.66-4.38c-0.77,0-1.57,0.29-2.18,0.74l-0.38-1.06
			c0.51-0.45,1.7-0.9,2.85-0.9c2.08,0,3.74,1.22,3.74,4.9v7.26c0,1.12,0,2.5,0.13,3.46H305.12z M304.9,814.41
			c-1.18,0-4.83,0.1-4.83,4.19c0,2.3,1.12,3.1,2.14,3.1c1.31,0,2.34-1.06,2.62-2.91c0.06-0.35,0.06-0.7,0.06-0.99V814.41z"/>
	</g>
</g>
<g>
	<g>
		<path class="st38" d="M343.55,799.52h1.38v8.45h0.06c0.32-0.54,0.8-1.06,1.28-1.38c0.54-0.35,1.09-0.54,2.02-0.54
			c1.41,0,3.39,0.99,3.39,4.86v10.75h-1.38V811.4c0-2.14-0.51-4.16-2.43-4.16c-1.41,0-2.46,1.09-2.88,3.07
			c-0.06,0.38-0.06,0.77-0.06,1.15v10.21h-1.38V799.52z"/>
	</g>
</g>
<g>
	<g>
		<path class="st38" d="M546.39,821.67c0.03-0.58,0.13-2.37,0.13-3.14v-19.01h1.38v8.74h0.06c0.83-1.79,2.08-2.21,3.26-2.21
			c2.05,0,4.13,2.34,4.13,7.94c0,5.66-2.4,7.94-4.45,7.94c-1.86,0-2.62-1.22-3.07-2.4h-0.13l-0.13,2.14H546.39z M547.9,816.29
			c0,0.32,0,0.64,0.06,0.93c0.7,3.01,2.05,3.49,2.85,3.49c2.34,0,3.1-3.26,3.1-6.72c0-3.36-0.8-6.72-3.17-6.72
			c-1.44,0-2.62,1.89-2.82,3.58c-0.03,0.38-0.03,0.74-0.03,1.12V816.29z"/>
	</g>
</g>
<g>
	<g>
		<path class="st38" d="M749.94,821.67v-14.17h-1.86v-1.18h1.86v-1.15c0-1.6,0.19-3.39,1.22-4.64c0.9-1.06,2.08-1.25,2.69-1.25
			c0.7,0,1.22,0.16,1.6,0.38l-0.38,1.12c-0.29-0.13-0.71-0.29-1.38-0.29c-2.02,0-2.37,2.27-2.37,4.67v1.15h2.91v1.18h-2.91v14.17
			H749.94z"/>
	</g>
</g>
</svg>
